<?xml version="1.0" encoding="UTF-8"?>
<svg id="_Слой_2" data-name="Слой 2" xmlns="http://www.w3.org/2000/svg" viewBox="0 0 59.63 59.63">
  <defs>
    <style>
      .cls-1 {
        fill: #fff;
      }

      .cls-2 {
        fill: #757a66;
      }
    </style>
  </defs>
  <g id="_Слой_1-2" data-name="Слой 1">
    <g>
      <circle class="cls-2" cx="29.81" cy="29.81" r="29.81"/>
      <g>
        <path class="cls-1" d="M39.64,19.92c1.01-.57,2.21-.79,3.37-.68,1.32.12,1.51.47,1.43,1.77-.11,1.74-1.17,3.31-2.51,4.34.49.32,1.5.45,1.35,1.23-.08.41-2.14,2.03-2.6,2.33-.39.25-1.43.63-1.62.78s-.06.52-.22.81c-.07.13-2.04,1.75-2.3,1.93-.56.38-1.25.76-1.92.87-.04.23.03.48-.03.71-.11.38-2.76,2.3-3.27,2.56-.21.11-1.02.33-1.05.38-.04.05.28.42-.17.92-.42.46-1.99,1.7-2.54,2.03-2.03,1.21-4.43,1.2-6.49.06l-4.36,3.6c-.81.44-1.44-.49-.79-1.13l3.94-3.37c-1.52-1.27.34-1.98,1.35-2.59-.15-2.28.37-4.1,2.02-5.69.32-.3,1.85-1.61,2.15-1.74.35-.15.64.06.77-.02.07-.04.39-.68.53-.85.43-.57,2.64-2.72,3.23-2.81.18-.03.4.12.59,0,.07-.04.67-1.08.87-1.31.3-.35,2.23-2.09,2.56-2.24s.7.06.8,0c.09-.05.88-1.34,1.13-1.6.33-.35,1.99-1.79,2.36-1.98,1.07-.57,1.21.99,1.41,1.7ZM37.9,24.59c.58-1.44.71-3.03.36-4.55-1.77,1.09-2.96,2.87-2.74,5.03l2.38-.48ZM43.07,20.61c-1.11-.08-2.18.07-3.09.73l-.56,3.38c2.07-.03,3.64-2.14,3.66-4.11ZM31.18,28.6l2.46-.46c.48-1.3.59-2.69.4-4.06-.02-.17,0-.29-.17-.39-1.68,1.08-2.85,2.84-2.68,4.91ZM41.35,26.55c-1.89-.65-4.02-.87-5.89,0l-.4,1.71c2.41.78,4.62.16,6.28-1.71ZM29.33,31.78c.55-1.49.58-2.98.37-4.54-1.71,1.01-3.11,2.98-2.74,5.03l2.37-.48ZM30.73,31.92c1.12.13,2.07.41,3.21.18,1.24-.25,2.16-1.03,3.08-1.83-1.74-.86-4.13-.9-5.88-.06l-.4,1.71ZM25.36,30.89l-1.14.85c-1.17,1.08-1.77,2.57-1.6,4.17l2.41-.52c.53-1.44.55-3,.33-4.5ZM32.67,33.75c-1.59-.48-3.99-.87-5.55-.12-.5.24-.52,1.42-.62,1.95.57-.05,1.1.19,1.65.23,1.69.12,3.16-.55,4.32-1.74.1-.1.25-.1.19-.32ZM28.33,37.63c.23-.32-1.17-.59-1.37-.63-2.12-.41-4.03-.01-5.87,1.08l-.07.24c1.7,1.11,3.36,1.54,5.3.67.78-.35,1.3-.94,2.01-1.36Z"/>
        <path class="cls-1" d="M16.87,48.8c-.05.05-.43.22-.5.23-.76.06-4.01-3.31-4.61-4.03-6.36-7.66-7.29-18.58-2.15-27.17.36-.61,2.11-3.28,2.69-3.37.21-.03.57.14.66.32.34.7-.83,1.74-1.23,2.32-6.3,9.28-5.24,21.53,3.11,29.16.42.38,1.87,1.37,2.06,1.71.14.24.17.62-.04.83Z"/>
        <path class="cls-1" d="M47.82,14.71c1.1.94,2.99,4.42,3.6,5.82,4.11,9.44,1.44,21.23-6.71,27.61-.53.41-1.71,1.51-2.06.35-.2-.65,1.41-1.55,1.9-2,8.01-7.35,9.91-19.14,4-28.45-.29-.46-1.91-2.52-1.95-2.75-.1-.74.62-1.09,1.22-.58Z"/>
        <polygon class="cls-1" points="43.52 12.27 45.14 9.88 45.29 9.86 46.25 10.59 43.52 14.55 42.26 13.58 42.72 9.75 40.72 12.6 39.74 11.97 42.45 7.92 43.94 8.89 43.52 12.27"/>
        <path class="cls-1" d="M17.58,7.93l.35,1.02c-1.2.2-2.8,1.47-1.77,2.74.54.66,1.85.59,2.35-.05.2-.25-.25-.47-.24-.74l-.73.33-.52-.84,1.75-1.11,1.43,2.22c-1.12,1.48-3.74,3.04-5.18,1.09-1.5-2.02.5-4.29,2.56-4.67Z"/>
        <path class="cls-1" d="M29.09,50.69c.72.74.28,1.89-.65,2.19.66.61.54,1.56.8,2.34l-1.46-.14c-.21-.8,0-2.01-1.16-1.92l-.23,1.83-1.32-.23.52-4.8c.96.07,2.8,0,3.5.72ZM26.73,52.25c1.66.27,1.87-1.32.12-1.14l-.12,1.14Z"/>
        <path class="cls-1" d="M29.24,4.5c-.03,1.98,1.2,4.83-1.69,5.23-3.05.41-2.67-2.66-2.88-4.77l1.37-.11c.1.79.09,3.1.6,3.62.28.28.87.27,1.17.04.7-.52-.09-3.06.05-3.89l1.37-.11Z"/>
        <path class="cls-1" d="M38.72,49.62l-1.94.57.28.79,1.89-.68.34.97c.03.12-1.58.56-1.75.65-.33.17.02.68.21.88l1.95-.78.4,1.14-3.43,1.14-1.6-4.68,3.31-1.14.34,1.14Z"/>
        <polygon class="cls-1" points="40.43 6.79 40.04 7.92 38.21 7.13 37.92 7.92 39.63 8.51 39.4 9.51 37.47 9 37.24 9.75 39.13 10.43 38.95 11.47 35.57 10.21 37.23 5.69 40.43 6.79"/>
        <polygon class="cls-1" points="34.03 49.98 34.14 50.98 32.1 51.22 32.1 52.02 34.15 51.8 34.27 52.94 32.43 53.1 32.33 53.97 34.6 53.74 34.68 54.77 31.17 55.17 30.61 50.31 34.03 49.98"/>
        <polygon class="cls-1" points="24.55 49.63 24.32 50.65 22.27 50.13 22.05 50.87 23.74 51.47 23.53 52.48 21.59 51.91 21.01 53.62 19.81 53.17 21.35 48.53 24.55 49.63"/>
        <path class="cls-1" d="M35.29,5.07l-.11,1.14-1.37-.23-.51,3.66c-.18.26-1.03-.05-1.33-.06l.45-3.65-.17-.16-1.17-.14.1-1.13,4.11.58Z"/>
        <path class="cls-1" d="M22.16,9.75c.07.07,1.53-.64,1.8-.67.41-.05.72.88.48,1.07l-3.19,1.08-1.56-4.33c-.22-.34,1.16-.69,1.22-.64l1.25,3.49Z"/>
      </g>
    </g>
  </g>
</svg>