<?xml version="1.0" encoding="UTF-8"?>
<svg id="_Слой_2" data-name="Слой 2" xmlns="http://www.w3.org/2000/svg" viewBox="0 0 235.92 69.79">
  <defs>
    <style>
      .cls-1 {
        fill: #fff;
      }
    </style>
  </defs>
  <g id="_Слой_1-2" data-name="Слой 1">
    <g>
      <g>
        <path class="cls-1" d="M37.13,25.03c-1.52,4.07-3.82,7.2-6.89,9.4-3.08,2.19-6.74,3.29-10.99,3.29-2.69,0-5.19-.49-7.51-1.46-2.32-.98-4.36-2.32-6.11-4.03s-3.13-3.72-4.13-6.02-1.49-4.74-1.49-7.34.49-5.11,1.46-7.42c.98-2.3,2.32-4.29,4.04-5.98,1.71-1.69,3.72-3.02,6.02-4,2.29-.98,4.79-1.46,7.48-1.46,4.33,0,8.09,1.13,11.25,3.38,3.17,2.26,5.46,5.42,6.89,9.49h-9.76c-.87-1.69-1.98-2.94-3.35-3.74-1.36-.8-3.05-1.2-5.04-1.2-1.52,0-2.91.27-4.16.81-1.26.55-2.35,1.29-3.25,2.24-.91.95-1.62,2.09-2.11,3.42-.5,1.33-.75,2.78-.75,4.39s.26,3.02.78,4.36c.52,1.35,1.25,2.51,2.18,3.48.93.98,2.03,1.75,3.31,2.31,1.27.56,2.67.85,4.2.85,1.82,0,3.37-.38,4.65-1.14s2.46-1.96,3.54-3.61h9.76Z"/>
        <path class="cls-1" d="M48.26.84h9.89l10.86,18.47L79.87.84h9.89v36.02h-8.65V13.06l-9.56,16.33h-5.07l-9.56-16.33v23.8h-8.65V.84h-.01Z"/>
        <path class="cls-1" d="M102.68.84h8.65v12.36h7.22c1.78,0,3.42.31,4.94.91,1.52.6,2.84,1.44,3.97,2.51,1.13,1.06,2,2.31,2.64,3.74.63,1.43.94,2.99.94,4.68s-.31,3.25-.94,4.68c-.63,1.43-1.51,2.67-2.64,3.74-1.13,1.06-2.45,1.89-3.97,2.51-1.52.6-3.16.91-4.94.91h-15.87V.84ZM117.96,28.99c1.3,0,2.35-.36,3.15-1.11.8-.74,1.2-1.69,1.2-2.86s-.4-2.13-1.2-2.86c-.8-.74-1.85-1.11-3.15-1.11h-6.64v7.93h6.64ZM134.29.84h8.65v36.02h-8.65V.84Z"/>
        <path class="cls-1" d="M191.31,25.03c-1.52,4.07-3.82,7.2-6.89,9.4-3.08,2.19-6.74,3.29-10.99,3.29-2.69,0-5.19-.49-7.51-1.46-2.32-.98-4.36-2.32-6.11-4.03-1.76-1.71-3.13-3.72-4.13-6.02s-1.49-4.74-1.49-7.34.49-5.11,1.46-7.42,2.32-4.29,4.04-5.98c1.71-1.69,3.72-3.02,6.02-4,2.29-.98,4.79-1.46,7.48-1.46,4.33,0,8.09,1.13,11.25,3.38,3.17,2.26,5.46,5.42,6.89,9.49h-9.75c-.87-1.69-1.98-2.94-3.35-3.74-1.36-.8-3.05-1.2-5.04-1.2-1.52,0-2.91.27-4.16.81-1.26.55-2.35,1.29-3.25,2.24-.91.95-1.62,2.09-2.11,3.42-.5,1.33-.75,2.78-.75,4.39s.26,3.02.78,4.36c.52,1.35,1.25,2.51,2.18,3.48.93.98,2.03,1.75,3.31,2.31,1.27.56,2.67.85,4.2.85,1.82,0,3.37-.38,4.65-1.14,1.27-.76,2.46-1.96,3.54-3.61h9.75Z"/>
        <path class="cls-1" d="M214.14.84h6.76l15.02,36.02h-9.24l-9.17-23.93-9.16,23.93h-9.24L214.14.84Z"/>
      </g>
      <g>
        <path class="cls-1" d="M75.4,69.65c-1.46-.11-2.87-.52-4.01-1.4-1.19-.91-1.78-2.3-1.78-4.16,0-1.56.37-3.21,1.11-4.96s1.73-3.39,2.96-4.93c1.22-1.54,2.59-2.79,4.1-3.77,1.51-.97,3.02-1.45,4.55-1.45.76,0,1.51.21,2.23.63.72.42,1.09,1.14,1.09,2.16,0,.95-.39,2-1.14,3.14-.76,1.14-1.85,2.21-3.26,3.19-.6.42-1.37.82-2.29,1.19-.93.38-1.85.69-2.78.94s-1.69.37-2.29.37c-.2.46-.39,1.06-.58,1.83s-.27,1.54-.27,2.34c0,.95.04,1.48.44,2.24.85,1.6,3.56,1.49,5.17,1.28,2.43-.32,4.71-1.52,6.66-2.96,2.23-1.65,3.44-3.24,4.56-5.62.09-.18.49-.92.66-1.03.18-.11.14-.25.22-.07.05.12,0,.25-.04.37-.58,1.45-.96,3.02-1.96,4.25-2.35,2.88-4.25,4.16-6.48,5.17-2.24,1.01-4.36,1.42-6.88,1.23ZM74.32,59.59c.56,0,1.51-.2,2.83-.6s2.54-1.03,3.62-1.91c1.05-.87,1.85-1.84,2.41-2.88.56-1.04.85-1.93.85-2.65,0-.84-.32-1.25-.97-1.25-.48,0-1.14.31-1.99.91s-1.89,1.63-3.14,3.08c-.76.91-1.49,1.9-2.17,2.97-.68,1.06-1.17,1.84-1.44,2.33Z"/>
        <path class="cls-1" d="M95.58,69.62h-.08c-1.71-.02-3.55-.39-4.78-1.62l-.07-.07c-1.06-1.11-1.6-2.62-1.6-4.49,0-.88.18-1.9.55-3.05.36-1.15.85-2.32,1.45-3.52.6-1.19,1.27-2.25,1.99-3.17,1.17-1.5,2.46-2.66,3.86-3.49,1.41-.82,2.83-1.24,4.28-1.24,1.53,0,2.62.32,3.29.95.66.63,1,1.38,1,2.22s-.2,1.53-.6,2.16-.85,1.14-1.36,1.53c-.5.39-.93.58-1.3.58-.32,0-.6-.12-.85-.34.32-.39.66-.85,1.03-1.38s.63-1.06.79-1.56c.16-.46.24-.93.24-1.38,0-1-.48-1.5-1.45-1.5-1.17,0-2.3.46-3.41,1.38s-2.11,2.11-3.02,3.55c-.9,1.44-1.63,2.96-2.17,4.55-.55,1.6-.82,3.07-.82,4.41,0,1.23.27,2.25.82,3.05.55.81,1.44,1.21,2.69,1.21,1.73,0,3.31-.84,4.7-1.74,1.48-.96,2.81-2.11,4.12-3.29,1.03-.93,2.04-1.86,3.03-2.81.61-.58,1.62-1.62,2.15-2.29.1-.13.2-.27.35-.35.62-.36.33.67.05.94-1.76,1.76-2.64,2.92-3.92,4.12-1.51,1.41-2.91,2.94-4.59,4.18-.22.16-.44.32-.67.47-1.64,1.06-3.66,1.97-5.7,1.97Z"/>
        <path class="cls-1" d="M106.34,69.37c-.44,0-.82,0-1.11.03s-.61.11-.93.27c1.49-2.86,2.9-5.72,4.23-8.6,1.33-2.88,2.67-5.6,4.04-8.17.8-1.45,1.48-2.46,2.02-3.05.55-.58,1.27-.87,2.2-.87.32,0,.66.05,1.03.15.36.1.72.15,1.09.15.24,0,.42-.02.54-.06-.56.32-1.29,1.11-2.17,2.38-.89,1.27-1.79,2.72-2.72,4.37-.93,1.65-1.75,3.2-2.48,4.65.76-.93,1.56-1.85,2.38-2.78.82-.93,1.74-1.81,2.75-2.65.88-.76,1.82-1.6,2.8-2.51.98-.9,1.96-1.68,2.93-2.32s1.81-.97,2.54-.97c.28,0,.46.02.55.06.76.32,1.14.85,1.14,1.57,0,.24-.1.6-.3,1.09-.52,1.37-1.19,2.77-2.02,4.2-.82,1.43-1.6,2.86-2.32,4.31.6-.72,1.36-1.61,2.27-2.65.9-1.04,1.82-1.97,2.75-2.78.88-.8,2.01-1.65,3.38-2.54,1.37-.88,2.72-1.65,4.04-2.29,1.33-.64,2.39-.97,3.2-.97.28,0,.48.02.6.06-.89,1.57-1.66,2.99-2.32,4.25-.66,1.27-1.34,2.62-2.02,4.04-.68,1.43-1.3,2.8-1.84,4.1-.36.88-.7,1.78-.93,2.71-.21.86-.94,3.09.43,3.31.86.15,1.7-.25,2.43-.68.53-.31,1.02-.68,1.52-1.03,2.36-1.63,5.08-4.62,7.58-7.73.07-.09.1-.17.5-.73.18-.26.35.81.3,1.12-.05.31-.36.51-.55.76-1.55,2.03-2.13,2.68-3.21,3.92-1.22,1.42-2.62,2.65-4,3.78-2.04,1.66-4.97,3.3-7.38,1.47-.74-.56-1.11-1.61-1.11-3.14,0-1.65.39-3.3,1.18-4.95s1.6-3.15,2.44-4.52c.4-.68.6-1.22.6-1.63,0-.48-.24-.72-.72-.72-.4,0-.95.2-1.66.6s-1.58,1.11-2.62,2.11c-.64.6-1.4,1.44-2.27,2.51-.87,1.06-1.74,2.22-2.62,3.47-.89,1.25-1.65,2.48-2.29,3.68-.65,1.2-1.06,2.27-1.27,3.2-.6,0-1.09-.25-1.45-.76-.36-.5-.55-1.09-.55-1.78v-.36c0-.12.02-.26.06-.42.2-1.25.52-2.3.97-3.17s.95-1.88,1.51-3.05c.28-.52.6-1.14.97-1.84s.68-1.39.96-2.05c.28-.66.42-1.22.42-1.66,0-.4-.16-.6-.48-.6-.36,0-.84.18-1.42.55-.58.36-1.14.77-1.66,1.24s-.93.82-1.21,1.06c-1.01.97-2.22,2.35-3.65,4.17-1.43,1.81-2.99,4.39-4.68,7.72-.24.44-.52.71-.85.82-.33.12-.83.17-1.52.17Z"/>
        <path class="cls-1" d="M156.61,62.14c-.68,1.36-1.55,2.61-2.59,3.77-1.05,1.16-2.24,2.1-3.56,2.81-1.33.71-2.78,1.07-4.34,1.07-1.65,0-2.83-.44-3.53-1.33s-1.06-1.99-1.06-3.31c0-.77.1-1.52.3-2.26.2-.74.44-1.47.72-2.2.4-.93.97-2.05,1.69-3.37.72-1.31,1.53-2.61,2.41-3.88s1.77-2.34,2.65-3.19c.88-.85,1.67-1.27,2.35-1.27.32,0,.66.05,1.03.15s.74.15,1.14.15c.16,0,.3-.02.42-.06-.24.12-.63.47-1.14,1.07-.52.6-1.11,1.33-1.78,2.17-.66.85-1.34,1.72-2.02,2.61-.68.89-1.29,1.68-1.81,2.37.68-.69,1.59-1.4,2.72-2.12,1.13-.71,2.32-1.07,3.56-1.07,1.37,0,2.37.37,3.02,1.1.64.74.96,1.6.96,2.61,0,.7-.11,1.42-.34,2.17-.21.76-.48,1.44-.8,2.02ZM153.23,63.07c.48-.89.82-1.73,1.03-2.52.2-.79.3-1.44.3-1.95,0-.77-.16-1.42-.48-1.95s-.89-.79-1.69-.79c-1.01,0-2.11.54-3.32,1.62-1.21,1.09-2.29,2.48-3.26,4.17-.6,1.09-1.03,2.03-1.3,2.84-.26.82-.39,1.59-.39,2.32,0,.62.16,1.12.48,1.51s.9.58,1.75.58,2.02-.53,3.41-1.6c1.39-1.06,2.55-2.48,3.48-4.25Z"/>
      </g>
    </g>
  </g>
</svg>