<?xml version="1.0" encoding="UTF-8"?>
<svg id="Layer_1" xmlns="http://www.w3.org/2000/svg" version="1.1" viewBox="0 0 841.9 253.3">
  <!-- Generator: Adobe Illustrator 29.4.0, SVG Export Plug-In . SVG Version: 2.1.0 Build 152)  -->
  <defs>
    <style>
      .st0 {
        fill: #ffecc6;
      }
    </style>
  </defs>
  <g>
    <path class="st0" d="M139.4,90.3c-5.3,14.2-13.3,25.1-24,32.7-10.7,7.6-23.5,11.4-38.3,11.4s-18.1-1.7-26.2-5.1c-8.1-3.4-15.2-8.1-21.3-14s-10.9-13-14.4-21-5.2-16.5-5.2-25.6,1.7-17.8,5.1-25.8,8.1-14.9,14.1-20.8c6-5.9,12.9-10.5,21-13.9,8-3.4,16.7-5.1,26.1-5.1,15.1,0,28.2,3.9,39.2,11.8,11,7.9,19,18.9,24,33.1h-34c-3-5.9-6.9-10.2-11.7-13-4.7-2.8-10.6-4.2-17.6-4.2s-10.1.9-14.5,2.8c-4.4,1.9-8.2,4.5-11.3,7.8-3.2,3.3-5.6,7.3-7.4,11.9-1.8,4.6-2.6,9.7-2.6,15.3s.9,10.5,2.7,15.2c1.8,4.7,4.3,8.7,7.6,12.1s7.1,6.1,11.5,8c4.4,2,9.3,2.9,14.6,2.9s11.7-1.3,16.2-4,8.6-6.8,12.3-12.6h34Z"/>
    <path class="st0" d="M178.2,6h34.4l37.8,64.3L288.3,6h34.4v125.5h-30.1V48.6l-33.3,56.9h-17.7l-33.3-56.9v82.9h-30.1V6h0Z"/>
    <path class="st0" d="M367.7,6h30.1v43h25.1c6.2,0,11.9,1.1,17.2,3.2s9.9,5,13.8,8.7,7,8,9.2,13c2.2,5,3.3,10.4,3.3,16.3s-1.1,11.3-3.3,16.3c-2.2,5-5.3,9.3-9.2,13s-8.5,6.6-13.8,8.7c-5.3,2.1-11,3.2-17.2,3.2h-55.3V6ZM420.9,104.1c4.5,0,8.2-1.3,11-3.9,2.8-2.6,4.2-5.9,4.2-10s-1.4-7.4-4.2-10c-2.8-2.6-6.4-3.9-11-3.9h-23.1v27.6h23.1ZM477.8,6h30.1v125.5h-30.1V6Z"/>
    <path class="st0" d="M676.4,90.3c-5.3,14.2-13.3,25.1-24,32.7-10.7,7.6-23.5,11.4-38.3,11.4s-18.1-1.7-26.2-5.1-15.2-8.1-21.3-14-10.9-13-14.4-21c-3.5-8-5.2-16.5-5.2-25.6s1.7-17.8,5.1-25.8,8.1-14.9,14.1-20.8c6-5.9,12.9-10.5,21-13.9,8-3.4,16.7-5.1,26.1-5.1,15.1,0,28.2,3.9,39.2,11.8,11,7.9,19,18.9,24,33.1h-34c-3-5.9-6.9-10.2-11.7-13-4.7-2.8-10.6-4.2-17.6-4.2s-10.1.9-14.5,2.8c-4.4,1.9-8.2,4.5-11.3,7.8-3.2,3.3-5.6,7.3-7.4,11.9-1.8,4.6-2.6,9.7-2.6,15.3s.9,10.5,2.7,15.2c1.8,4.7,4.3,8.7,7.6,12.1s7.1,6.1,11.5,8c4.4,2,9.3,2.9,14.6,2.9s11.7-1.3,16.2-4,8.6-6.8,12.3-12.6h34Z"/>
    <path class="st0" d="M755.9,6h23.5l52.3,125.5h-32.2l-31.9-83.4-31.9,83.4h-32.2l52.3-125.5Z"/>
  </g>
  <g>
    <path class="st0" d="M272.7,245.7c-5.1-.4-10-1.8-14-4.9-4.1-3.2-6.2-8-6.2-14.5s1.3-11.2,3.9-17.3,6-11.8,10.3-17.2c4.3-5.4,9-9.7,14.3-13.1,5.3-3.4,10.5-5,15.9-5s5.3.7,7.8,2.2c2.5,1.4,3.8,4,3.8,7.5s-1.3,7-4,10.9c-2.7,4-6.4,7.7-11.3,11.1-2.1,1.5-4.8,2.8-8,4.2-3.2,1.3-6.4,2.4-9.7,3.3s-5.9,1.3-8,1.3c-.7,1.6-1.4,3.7-2,6.4s-.9,5.4-.9,8.1.2,5.2,1.5,7.8c2.9,5.6,12.4,5.2,18,4.5,8.5-1.1,16.4-5.3,23.2-10.3,7.8-5.7,12-11.3,15.9-19.6.3-.6,1.7-3.2,2.3-3.6.6-.4.5-.9.8-.2.2.4,0,.9-.2,1.3-2,5-3.3,10.5-6.8,14.8-8.2,10-14.8,14.5-22.6,18-7.8,3.5-15.2,4.9-24,4.3ZM269,210.6c2,0,5.3-.7,9.9-2.1s8.8-3.6,12.6-6.6c3.7-3,6.4-6.4,8.4-10,2-3.6,2.9-6.7,2.9-9.2s-1.1-4.4-3.4-4.4-4,1.1-6.9,3.2-6.6,5.7-10.9,10.7c-2.7,3.2-5.2,6.6-7.6,10.3-2.4,3.7-4.1,6.4-5,8.1Z"/>
    <path class="st0" d="M343,245.6h-.3c-6,0-12.4-1.3-16.6-5.6l-.2-.2c-3.7-3.9-5.6-9.1-5.6-15.7s.6-6.6,1.9-10.6c1.3-4,2.9-8.1,5-12.3,2.1-4.1,4.4-7.8,6.9-11,4.1-5.2,8.6-9.3,13.4-12.2,4.9-2.9,9.9-4.3,14.9-4.3s9.1,1.1,11.4,3.3,3.5,4.8,3.5,7.7-.7,5.3-2.1,7.5-3,4-4.7,5.3c-1.8,1.3-3.2,2-4.5,2s-2.1-.4-2.9-1.2c1.1-1.3,2.3-2.9,3.6-4.8s2.2-3.7,2.7-5.4c.6-1.6.8-3.2.8-4.8,0-3.5-1.7-5.2-5-5.2s-8,1.6-11.9,4.8-7.4,7.3-10.5,12.4c-3.1,5-5.7,10.3-7.6,15.9-1.9,5.6-2.8,10.7-2.8,15.4s.9,7.8,2.8,10.6c1.9,2.8,5,4.2,9.4,4.2s11.5-2.9,16.4-6.1c5.2-3.3,9.8-7.4,14.3-11.4,3.6-3.2,7.1-6.5,10.6-9.8,2.1-2,5.7-5.7,7.5-8,.4-.5.7-.9,1.2-1.2,2.2-1.2,1.1,2.3.2,3.3-6.1,6.1-9.2,10.2-13.7,14.4-5.3,4.9-10.1,10.3-16,14.6-.8.6-1.5,1.1-2.3,1.6-5.7,3.7-12.8,6.9-19.8,6.9Z"/>
    <path class="st0" d="M380.5,244.7c-1.5,0-2.8,0-3.9.1s-2.1.4-3.2.9c5.2-9.9,10.1-19.9,14.7-29.9,4.6-10,9.3-19.5,14.1-28.5,2.8-5,5.2-8.6,7-10.6,1.9-2,4.4-3,7.7-3s2.3.2,3.6.5c1.3.4,2.5.5,3.8.5s1.5,0,1.9-.2c-2,1.1-4.5,3.9-7.6,8.3-3.1,4.4-6.2,9.5-9.5,15.2-3.2,5.7-6.1,11.1-8.6,16.2,2.7-3.2,5.4-6.4,8.3-9.7,2.9-3.2,6.1-6.3,9.6-9.2,3.1-2.7,6.3-5.6,9.8-8.7,3.4-3.1,6.8-5.9,10.2-8.1s6.3-3.4,8.8-3.4,1.6,0,1.9.2c2.7,1.1,4,2.9,4,5.5s-.4,2.1-1,3.8c-1.8,4.8-4.2,9.6-7,14.6-2.9,5-5.6,10-8.1,15,2.1-2.5,4.7-5.6,7.9-9.2,3.1-3.6,6.3-6.9,9.6-9.7,3.1-2.8,7-5.7,11.8-8.8,4.8-3.1,9.5-5.7,14.1-8,4.6-2.2,8.3-3.4,11.1-3.4s1.7,0,2.1.2c-3.1,5.5-5.8,10.4-8.1,14.8s-4.7,9.1-7,14.1c-2.4,5-4.5,9.7-6.4,14.3-1.3,3.1-2.4,6.2-3.2,9.4-.7,3-3.3,10.8,1.5,11.5,3,.5,5.9-.9,8.4-2.4,1.9-1.1,3.6-2.4,5.3-3.6,8.2-5.7,17.7-16.1,26.4-26.9.2-.3.4-.6,1.7-2.5.6-.9,1.2,2.8,1,3.9-.2,1.1-1.2,1.8-1.9,2.6-5.4,7.1-7.4,9.3-11.2,13.7-4.3,4.9-9.1,9.2-13.9,13.2-7.1,5.8-17.3,11.5-25.7,5.1-2.6-2-3.9-5.6-3.9-10.9s1.4-11.5,4.1-17.2c2.7-5.7,5.6-11,8.5-15.8,1.4-2.4,2.1-4.3,2.1-5.7s-.8-2.5-2.5-2.5-3.3.7-5.8,2.1-5.5,3.9-9.1,7.4c-2.2,2.1-4.9,5-7.9,8.7-3,3.7-6.1,7.7-9.1,12.1-3.1,4.3-5.7,8.6-8,12.8-2.3,4.2-3.7,7.9-4.4,11.1-2.1,0-3.8-.9-5-2.6-1.3-1.8-1.9-3.8-1.9-6.2v-1.3c0-.4,0-.9.2-1.5.7-4.3,1.8-8,3.4-11s3.3-6.5,5.3-10.6c1-1.8,2.1-4,3.4-6.4s2.4-4.8,3.3-7.2c1-2.3,1.5-4.2,1.5-5.8s-.6-2.1-1.7-2.1-2.9.6-4.9,1.9c-2,1.3-4,2.7-5.8,4.3s-3.2,2.8-4.2,3.7c-3.5,3.4-7.7,8.2-12.7,14.5-5,6.3-10.4,15.3-16.3,26.9-.8,1.5-1.8,2.5-2.9,2.8-1.1.4-2.9.6-5.3.6Z"/>
    <path class="st0" d="M555.5,219.5c-2.4,4.7-5.4,9.1-9,13.1-3.7,4-7.8,7.3-12.4,9.8-4.6,2.5-9.7,3.7-15.1,3.7s-9.8-1.5-12.3-4.6-3.7-6.9-3.7-11.5.4-5.3,1-7.9c.7-2.6,1.5-5.1,2.5-7.7,1.4-3.2,3.4-7.1,5.9-11.7,2.5-4.6,5.3-9.1,8.4-13.5s6.2-8.1,9.2-11.1c3.1-3,5.8-4.4,8.2-4.4s2.3.2,3.6.5,2.6.5,4,.5,1,0,1.5-.2c-.8.4-2.2,1.6-4,3.7-1.8,2.1-3.9,4.6-6.2,7.6-2.3,3-4.7,6-7,9.1-2.4,3.1-4.5,5.9-6.3,8.3,2.4-2.4,5.5-4.9,9.5-7.4,3.9-2.5,8.1-3.7,12.4-3.7s8.3,1.3,10.5,3.8c2.2,2.6,3.3,5.6,3.3,9.1s-.4,4.9-1.2,7.6c-.7,2.7-1.7,5-2.8,7ZM543.8,222.8c1.7-3.1,2.9-6,3.6-8.8.7-2.8,1-5,1-6.8,0-2.7-.6-4.9-1.7-6.8s-3.1-2.7-5.9-2.7-7.4,1.9-11.6,5.7c-4.2,3.8-8,8.6-11.3,14.5-2.1,3.8-3.6,7.1-4.5,9.9-.9,2.8-1.4,5.5-1.4,8.1s.6,3.9,1.7,5.3,3.1,2,6.1,2,7-1.9,11.9-5.6c4.8-3.7,8.9-8.6,12.1-14.8Z"/>
  </g>
</svg>