<?xml version="1.0" encoding="UTF-8"?>
<svg id="Layer_1" xmlns="http://www.w3.org/2000/svg" version="1.1" viewBox="0 0 718.9 595.3">
  <!-- Generator: Adobe Illustrator 29.4.0, SVG Export Plug-In . SVG Version: 2.1.0 Build 152)  -->
  <defs>
    <style>
      .st0 {
        fill: #ffecc6;
      }
    </style>
  </defs>
  <path class="st0" d="M551.8,2.8c41.7,3.1,82,14.9,114.7,40,33.9,26.1,50.9,65.8,50.9,119s-10.6,91.8-31.9,141.8c-21.3,49.9-49.4,97-84.5,141-35.1,44-74.2,79.9-117.3,107.6-43.1,27.7-86.5,41.5-130.3,41.5s-43.1-5.9-63.8-17.9c-20.7-11.9-31.1-32.6-31.1-61.9s10.9-57.1,32.8-89.6c21.9-32.6,52.9-63.1,93.1-91.3,17.3-12,39.1-23.4,65.6-34.3,26.5-10.9,52.9-19.8,79.4-26.9,26.5-7.1,48.3-10.6,65.5-10.6,5.8-13.1,11.2-30.5,16.4-52.2,5.2-21.8,7.8-44,7.8-66.8s-1.3-42.4-12.7-64c-24.2-45.6-101.6-42.7-147.7-36.6-69.5,9.1-134.5,43.3-190.3,84.5-63.8,47.1-98.2,92.7-130.4,160.9-2.5,5.3-13.9,26.3-19,29.4s-3.9,7.3-6.2,1.9c-1.4-3.4,0-7.2,1.3-10.6,16.5-41.4,27.5-86.4,56-121.4,67-82.4,121.6-119,185.1-147.9C419.2,9.3,480.1-2.6,551.8,2.8ZM582.8,290.6c-16.1,0-43.1,5.7-81.1,17.1-37.9,11.4-72.4,29.6-103.5,54.6-29.9,25-52.9,52.4-69,82.3-16.1,29.9-24.2,55.1-24.2,75.8s9.2,35.9,27.6,35.9,32.8-8.7,56.9-26.1c24.2-17.4,54-46.7,89.7-88,21.9-26.1,42.6-54.3,62.1-84.8,19.7-30.5,33.5-52.7,41.5-66.8Z"/>
  <path class="st0" d="M364.7,38.3c63.5,28.9,118,65.4,185.1,147.9,28.5,35,39.5,80,56,121.4,1.4,3.4,2.7,7.2,1.3,10.6-2.3,5.3-1,1.1-6.2-1.9s-16.6-24.2-19-29.4c-32.2-68.2-66.6-113.8-130.4-160.9-55.8-41.2-120.8-75.4-190.3-84.5-46-6.1-123.5-9-147.7,36.6-11.5,21.7-12.7,36.9-12.7,64s2.6,45.1,7.8,66.8c5.2,21.8,10.6,39.1,16.4,52.2,17.3,0,39.1,3.5,65.5,10.6,26.5,7.1,52.9,16.1,79.4,26.9,26.5,10.9,48.3,22.3,65.6,34.3,40.2,28.2,71.3,58.7,93.1,91.3,21.8,32.6,32.8,62.5,32.8,89.6s-10.3,49.9-31.1,61.9c-20.7,11.9-42,17.9-63.8,17.9-43.7,0-87.1-13.8-130.3-41.5-43.1-27.8-82.2-63.6-117.3-107.6-35.1-44.1-63.2-91.1-84.5-141C13.1,253.6,2.5,206.3,2.5,161.8S19.5,68.9,53.4,42.8C86,17.7,126.4,5.9,168.1,2.8c71.6-5.4,132.6,6.5,196.6,35.5ZM178.4,357.4c19.5,30.4,40.2,58.7,62.1,84.8,35.7,41.3,65.5,70.6,89.7,88,24.2,17.4,43.1,26.1,56.9,26.1s27.6-11.9,27.6-35.9-8.1-45.9-24.2-75.8c-16.1-29.9-39.1-57.4-69-82.3-31.1-25-65.5-43.2-103.5-54.6-37.9-11.4-65-17.1-81.1-17.1,8.1,14.1,21.9,36.4,41.5,66.8Z"/>
</svg>