<?xml version="1.0" encoding="UTF-8"?>
<svg id="_Слой_2" data-name="Слой 2" xmlns="http://www.w3.org/2000/svg" viewBox="0 0 385.08 34.21">
  <defs>
    <style>
      .cls-1 {
        fill: #fff;
      }

      .cls-2 {
        fill: #ffecc6;
      }
    </style>
  </defs>
  <g id="_Слой_1-2" data-name="Слой 1" transform="translate(5 0)">
    <g>
      <path class="cls-1" d="M3.52,24.41c-1.1-.61-1.96-1.44-2.58-2.52-.62-1.07-.94-2.27-.94-3.6s.31-2.53.94-3.6c.62-1.07,1.49-1.91,2.59-2.52,1.11-.6,2.34-.91,3.71-.91,1.03,0,1.97.17,2.84.51.87.34,1.6.84,2.21,1.5l-.93.93c-1.08-1.09-2.44-1.64-4.08-1.64-1.09,0-2.08.25-2.98.75-.89.5-1.59,1.18-2.1,2.05-.51.87-.76,1.84-.76,2.92s.25,2.05.76,2.92c.51.87,1.21,1.55,2.1,2.05s1.89.75,2.98.75c1.66,0,3.02-.55,4.08-1.66l.93.93c-.61.66-1.34,1.16-2.22,1.51s-1.83.52-2.85.52c-1.37,0-2.6-.3-3.7-.91Z"/>
      <path class="cls-1" d="M17.35,24.4c-1.11-.61-1.98-1.45-2.6-2.52s-.94-2.26-.94-3.59.31-2.53.94-3.59,1.49-1.9,2.6-2.52c1.11-.61,2.35-.92,3.72-.92s2.6.3,3.7.91c1.1.61,1.96,1.44,2.59,2.52.63,1.07.95,2.27.95,3.6s-.32,2.53-.95,3.6c-.63,1.07-1.5,1.91-2.59,2.52-1.1.61-2.33.91-3.7.91s-2.61-.31-3.72-.92ZM24.03,23.28c.88-.49,1.57-1.18,2.07-2.05.5-.88.75-1.85.75-2.93s-.25-2.06-.75-2.93c-.5-.87-1.19-1.56-2.07-2.05s-1.87-.74-2.96-.74-2.08.25-2.97.74-1.58,1.18-2.09,2.05c-.51.88-.76,1.85-.76,2.93s.25,2.05.76,2.93c.51.88,1.2,1.56,2.09,2.05s1.88.74,2.97.74,2.08-.25,2.96-.74Z"/>
      <path class="cls-1" d="M39.55,19.2c.52.59.78,1.3.78,2.13s-.25,1.51-.75,2.11-1.16,1.07-1.99,1.39c-.83.32-1.73.48-2.7.48-.92,0-1.83-.15-2.71-.44s-1.69-.74-2.4-1.33l.53-1.05c.6.51,1.29.9,2.07,1.17s1.56.4,2.35.4,1.44-.12,2.07-.35c.63-.24,1.13-.58,1.51-1.02.38-.44.56-.96.56-1.57,0-.8-.32-1.42-.95-1.85-.63-.43-1.52-.65-2.66-.65h-2.96v-1.18h2.88c.97,0,1.73-.21,2.28-.62.54-.41.82-.99.82-1.73,0-.82-.35-1.46-1.05-1.92s-1.57-.7-2.62-.7c-.66,0-1.32.1-1.99.29-.67.19-1.31.48-1.91.86l-.49-1.2c1.37-.82,2.85-1.22,4.44-1.22.93,0,1.79.15,2.56.45s1.39.74,1.84,1.3c.45.57.68,1.23.68,1.99s-.2,1.37-.61,1.9c-.41.53-.98.91-1.72,1.13.91.22,1.62.63,2.14,1.22Z"/>
      <path class="cls-1" d="M56.64,23.94v4.36h-1.36v-3.1h-12.05l-.02,3.1h-1.36l.02-4.36h.69c.91-.05,1.54-.77,1.89-2.16s.57-3.36.65-5.91l.16-4.48h9.31v12.55h2.07ZM45.92,21.21c-.26,1.36-.69,2.27-1.29,2.73h8.5v-11.29h-6.61l-.12,3.35c-.07,2.1-.23,3.84-.48,5.2Z"/>
      <path class="cls-1" d="M68.5,21.51h-7.69l-1.66,3.69h-1.52l6.31-13.81h1.44l6.31,13.81h-1.54l-1.66-3.69ZM67.97,20.33l-3.31-7.42-3.32,7.42h6.63Z"/>
      <path class="cls-1" d="M84.11,23.94v1.26h-9.77v-13.81h9.47v1.26h-8.01v4.91h7.14v1.24h-7.14v5.13h8.31ZM76.74,9.58c-.17-.16-.25-.36-.25-.61,0-.24.08-.44.25-.6s.37-.25.6-.25c.22,0,.42.08.59.25.17.17.26.37.26.6s-.08.44-.25.6c-.16.17-.36.25-.6.25s-.44-.08-.6-.24ZM80.25,9.56c-.16-.16-.25-.36-.25-.6s.08-.44.26-.6c.17-.16.37-.25.59-.25.24,0,.44.08.6.25.16.17.25.37.25.6,0,.25-.08.45-.25.61-.17.16-.37.24-.6.24s-.44-.08-.6-.25Z"/>
      <path class="cls-1" d="M101.69,11.39v13.81h-1.4v-11.05l-5.43,9.29h-.69l-5.43-9.23v10.99h-1.4v-13.81h1.2l6,10.24,5.94-10.24h1.2Z"/>
      <path class="cls-2" d="M113.97,25.33c-1.21,0-2.11-.32-2.69-.96-.58-.64-.87-1.5-.87-2.57,0-.51.1-1.09.3-1.75.2-.66.46-1.33.79-2.01.33-.68.69-1.29,1.09-1.81.64-.86,1.34-1.52,2.11-2,.77-.47,1.55-.71,2.34-.71.84,0,1.43.18,1.8.54.36.36.54.79.54,1.27s-.11.87-.33,1.24c-.22.36-.47.65-.74.87-.27.22-.51.33-.71.33-.18,0-.33-.07-.46-.2.18-.22.36-.48.56-.79.2-.31.34-.6.43-.89.09-.26.13-.53.13-.79,0-.57-.26-.86-.79-.86-.64,0-1.26.26-1.86.79-.61.53-1.16,1.2-1.65,2.03-.5.82-.89,1.69-1.19,2.61-.3.91-.45,1.75-.45,2.52,0,.7.15,1.29.45,1.75.3.46.79.69,1.47.69.9,0,1.69-.29,2.38-.87s1.29-1.32,1.81-2.21c.53-.89.99-1.8,1.38-2.72.09,0,.18.02.26.05.09.03.13.12.13.25-.44,1.1-.96,2.12-1.55,3.07-.59.95-1.27,1.71-2.03,2.28-.76.57-1.64.86-2.66.86Z"/>
      <path class="cls-2" d="M126.53,16.76c.2-.4.39-.78.58-1.15.19-.37.36-.74.51-1.09.24-.48.67-.73,1.29-.73h1.81c-.48.4-.97.99-1.47,1.78s-1.04,1.8-1.63,3.04c-.15.33-.35.75-.59,1.25s-.46,1.04-.64,1.62c-.19.57-.28,1.14-.28,1.72,0,.77.28,1.15.83,1.15.75,0,1.47-.52,2.18-1.55.7-1.03,1.4-2.35,2.08-3.96.18,0,.28.01.31.03s.06.11.08.26c-.24.59-.53,1.24-.87,1.93s-.73,1.36-1.15,2c-.43.64-.9,1.16-1.42,1.55-.52.4-1.08.59-1.7.59-.55,0-1-.2-1.35-.61-.35-.41-.53-.98-.53-1.73s.19-1.57.56-2.54l.43-1.06c-.48.55-1,1.02-1.55,1.4-.55.38-1.13.58-1.75.58-.77,0-1.31-.2-1.63-.61-.32-.41-.47-.91-.45-1.5-.24,0-.36-.1-.36-.3.02-.07.12-.27.3-.63.18-.35.38-.77.63-1.25.24-.48.48-.95.71-1.4.23-.45.41-.8.54-1.04.26-.48.68-.73,1.25-.73h1.65c-.38.29-.7.6-.97.94-.28.34-.65.96-1.14,1.86-.66,1.25-.96,2.22-.89,2.89.07.67.31,1.01.73,1.01.73,0,1.47-.43,2.24-1.29.55-.64,1.09-1.41,1.62-2.31l.07-.13Z"/>
      <path class="cls-2" d="M138.34,25.3c-.51,0-.95-.14-1.34-.43-.39-.29-.58-.87-.58-1.75,0-.37.03-.73.08-1.06.05-.33.13-.68.21-1.06-.2.33-.47.74-.82,1.22-.35.48-.74.96-1.17,1.42-.43.46-.87.85-1.32,1.16-.45.31-.87.46-1.27.46-.57,0-1.03-.26-1.38-.78-.35-.52-.53-1.19-.53-2.03,0-.9.21-1.87.63-2.9.42-1.03.99-2.02,1.72-2.97.73-.95,1.56-1.71,2.51-2.31.95-.59,1.93-.89,2.97-.89.5,0,.99.08,1.45.25s.87.43,1.22.81c.15.15.23.33.23.53,0,.13-.06.24-.17.33-.11.09-.25.11-.43.07-.24-.77-.76-1.15-1.55-1.15-.37,0-.8.12-1.29.36-.59.31-1.23.8-1.9,1.47s-1.3,1.43-1.88,2.28c-.58.85-1.06,1.7-1.44,2.56s-.56,1.64-.56,2.34.27,1.09.83,1.09c.48,0,.98-.23,1.5-.69s1.01-1.04,1.48-1.73c.47-.69.91-1.38,1.3-2.06.4-.68.7-1.23.92-1.65.33-.59.64-1.09.92-1.48.29-.4.69-.59,1.22-.59.24,0,.48.03.73.1.24.07.5.08.76.03-.66.66-1.24,1.44-1.73,2.34-.5.9-.88,1.79-1.14,2.66-.26.87-.4,1.6-.4,2.19,0,.66.22.99.66.99.35,0,.73-.2,1.14-.59.41-.4.8-.9,1.19-1.5.38-.6.74-1.22,1.07-1.85.33-.63.59-1.17.79-1.63.11,0,.2.01.28.03s.12.11.12.26c-.02.09-.06.18-.12.28s-.14.27-.25.51c-.18.35-.42.82-.73,1.42-.31.59-.67,1.19-1.09,1.8-.42.61-.87,1.12-1.35,1.53s-.99.63-1.52.63Z"/>
      <path class="cls-2" d="M145.83,25.33c-1.21,0-2.11-.32-2.69-.96-.58-.64-.87-1.5-.87-2.57,0-.51.1-1.09.3-1.75.2-.66.46-1.33.79-2.01.33-.68.69-1.29,1.09-1.81.64-.86,1.34-1.52,2.11-2,.77-.47,1.55-.71,2.34-.71.84,0,1.43.18,1.8.54.36.36.54.79.54,1.27s-.11.87-.33,1.24c-.22.36-.47.65-.74.87-.27.22-.51.33-.71.33-.18,0-.33-.07-.46-.2.18-.22.36-.48.56-.79.2-.31.34-.6.43-.89.09-.26.13-.53.13-.79,0-.57-.26-.86-.79-.86-.64,0-1.26.26-1.86.79-.61.53-1.16,1.2-1.65,2.03-.5.82-.89,1.69-1.19,2.61-.3.91-.45,1.75-.45,2.52,0,.7.15,1.29.45,1.75.3.46.79.69,1.47.69.9,0,1.69-.29,2.38-.87s1.29-1.32,1.81-2.21c.53-.89.99-1.8,1.38-2.72.09,0,.18.02.26.05.09.03.13.12.13.25-.44,1.1-.96,2.12-1.55,3.07-.59.95-1.27,1.71-2.03,2.28-.76.57-1.64.86-2.66.86Z"/>
      <path class="cls-2" d="M148.47,25.37c.81-1.56,1.58-3.13,2.31-4.7s1.46-3.06,2.21-4.47c.44-.79.81-1.35,1.1-1.67.3-.32.7-.48,1.2-.48.18,0,.36.03.56.08.2.05.4.08.59.08.13,0,.23-.01.3-.03-.31.18-.7.61-1.19,1.3-.48.69-.98,1.49-1.48,2.39-.51.9-.96,1.75-1.35,2.54.42-.5.85-1.01,1.3-1.52.45-.51.95-.99,1.5-1.45.48-.42.99-.87,1.53-1.37.54-.5,1.07-.92,1.6-1.27.53-.35.99-.53,1.38-.53.15,0,.25.01.3.03.42.18.63.46.63.86,0,.13-.05.33-.17.59-.29.75-.65,1.51-1.1,2.29-.45.78-.87,1.57-1.27,2.36.33-.4.74-.88,1.24-1.45.5-.57.99-1.08,1.5-1.52.48-.44,1.1-.9,1.85-1.38s1.48-.9,2.21-1.25c.73-.35,1.31-.53,1.75-.53.15,0,.26.01.33.03-.48.86-.91,1.63-1.27,2.33-.36.69-.73,1.43-1.11,2.21s-.71,1.53-1.01,2.24-.49,1.31-.58,1.8c-.07.29-.1.55-.1.79,0,.35.07.58.2.69s.28.16.43.16c.55,0,1.11-.3,1.67-.91s1.08-1.31,1.57-2.13c.26,0,.4.13.4.4-.51.88-1.11,1.67-1.8,2.38-.69.7-1.46,1.06-2.29,1.06-.46,0-.9-.15-1.3-.46-.41-.31-.61-.88-.61-1.71,0-.9.21-1.8.64-2.71.43-.9.87-1.73,1.34-2.47.22-.37.33-.67.33-.89,0-.26-.13-.4-.4-.4-.22,0-.52.11-.91.33-.39.22-.86.61-1.44,1.15-.35.33-.76.79-1.24,1.37-.47.58-.95,1.22-1.44,1.9-.48.68-.9,1.35-1.25,2.01-.35.66-.58,1.24-.69,1.75-.33,0-.59-.14-.79-.41s-.3-.6-.3-.97v-.2c0-.07.01-.14.03-.23.11-.68.29-1.26.53-1.73s.52-1.03.83-1.67c.15-.29.33-.62.53-1.01s.37-.76.53-1.12c.15-.36.23-.67.23-.91,0-.22-.09-.33-.26-.33-.2,0-.46.1-.78.3-.32.2-.62.42-.91.68-.29.25-.51.45-.66.58-.55.53-1.21,1.29-2,2.28-.78.99-1.63,2.4-2.56,4.22-.13.24-.29.39-.46.45s-.45.08-.82.08c-.24,0-.45,0-.61.02-.17.01-.33.06-.51.15ZM158.4,10.32c.57,0,1.3.08,2.19.23.89.15,1.7.23,2.42.23.46,0,.98-.03,1.57-.08.58-.05,1.14-.2,1.68-.43.54-.23.95-.61,1.24-1.14.22,0,.33.08.33.23-.42.99-.99,1.71-1.72,2.18s-1.86.69-3.4.69c-.55,0-1.13-.08-1.73-.23-.61-.15-1.21-.31-1.81-.46-.6-.15-1.17-.23-1.7-.23-.44,0-.85.07-1.22.21-.37.14-.68.42-.92.84l-.1.17c-.07.09-.12.13-.17.13s-.09-.03-.13-.1c-.04-.07-.06-.14-.03-.23.24-.62.68-1.11,1.32-1.47.64-.36,1.36-.54,2.18-.54Z"/>
      <path class="cls-2" d="M173.41,19.99c-.57.97-1.12,1.86-1.65,2.67-.53.81-1.07,1.46-1.63,1.93-.56.47-1.19.71-1.9.71-.53,0-1-.16-1.42-.48-.42-.32-.63-.79-.63-1.4,0-.37.08-.78.25-1.22.16-.44.41-.81.73-1.12.32-.31.71-.44,1.17-.4.31.02.58.14.82.36-.4.37-.7.81-.92,1.32s-.33.95-.33,1.32c0,.22.05.42.15.61.1.19.28.28.54.28.42,0,.85-.24,1.3-.71.45-.47.92-1.09,1.42-1.85.49-.76.98-1.54,1.47-2.36.64-1.03,1.27-1.99,1.9-2.87s1.21-1.56,1.76-2.04c.7-.59,1.37-.89,2.01-.89h.13c.88,0,1.12.42.73,1.25l-1.16,2.47c-.2.4-.43.89-.71,1.47-.28.58-.54,1.18-.79,1.78-.25.6-.45,1.18-.59,1.71-.14.54-.19.97-.13,1.3s.27.5.64.5c.55,0,1.09-.29,1.63-.86.54-.57,1.05-1.28,1.53-2.13.48-.85.91-1.69,1.29-2.52.09,0,.18.03.26.08.09.06.13.13.13.21-.4.99-.85,1.95-1.37,2.87-.52.92-1.11,1.68-1.78,2.28-.67.59-1.45.89-2.33.89s-1.39-.3-1.6-.91c-.21-.6-.19-1.4.07-2.39.25-.99.65-2.07,1.2-3.25.55-1.18,1.15-2.33,1.81-3.45.24-.4.31-.59.2-.59-.09,0-.24.08-.45.25s-.4.34-.58.51c-.42.4-.87.95-1.35,1.65-.48.7-1.1,1.71-1.85,3Z"/>
      <path class="cls-2" d="M181.98,25.2c-.24,0-.53-.05-.87-.17-.34-.11-.64-.31-.89-.61s-.38-.74-.38-1.34.19-1.23.56-1.98c.37-.75.7-1.41.99-1.98-.24,0-.36-.1-.36-.3.02-.07.12-.27.3-.63.18-.35.38-.77.63-1.25.24-.48.48-.95.71-1.4.23-.45.41-.8.54-1.04.26-.48.68-.73,1.25-.73h2.04c-.37.29-.71.6-1.01.94s-.67.96-1.11,1.86c-.31.62-.58,1.16-.81,1.63-.23.47-.46.95-.69,1.43-.23.48-.42.89-.58,1.22-.29.62-.47,1.11-.56,1.47-.09.36-.13.7-.13,1.01,0,.73.24,1.09.73,1.09.53,0,1.17-.43,1.91-1.29.62-.73,1.22-1.59,1.81-2.61.59-1.01,1.16-2.06,1.7-3.13s1.02-2.05,1.44-2.9c.24-.48.67-.73,1.29-.73h1.81c-.48.4-.97.99-1.47,1.78-.5.79-1.04,1.8-1.63,3.04-.15.33-.35.75-.59,1.25-.24.51-.46,1.04-.64,1.62-.19.57-.28,1.14-.28,1.72,0,.77.27,1.15.82,1.15.75,0,1.47-.52,2.18-1.55.7-1.03,1.4-2.35,2.08-3.96.18,0,.28.01.31.03.03.02.06.11.08.26-.24.59-.53,1.24-.87,1.93-.34.69-.73,1.36-1.15,2-.43.64-.9,1.16-1.42,1.55s-1.08.59-1.7.59c-.55,0-1-.2-1.35-.61-.35-.41-.53-.98-.53-1.73,0-.59.11-1.23.33-1.91-.37.66-.8,1.32-1.29,1.98-.48.66-1,1.2-1.55,1.63s-1.1.64-1.65.64Z"/>
      <path class="cls-2" d="M201.71,17.05c0,.66-.18,1.45-.53,2.38s-.85,1.83-1.48,2.71-1.39,1.61-2.26,2.19c-.87.58-1.81.87-2.82.87-.88,0-1.5-.26-1.85-.79-.35-.53-.53-1.19-.53-1.98,0-.44.05-.89.17-1.35s.34-1.07.69-1.81c-.2,0-.3-.05-.31-.15-.01-.1-.02-.19-.02-.28.22-.53.54-1.23.96-2.09.42-.87.9-1.83,1.45-2.87.55-1.04,1.13-2.09,1.75-3.15.62-1.06,1.23-2.05,1.85-2.99s1.2-1.71,1.75-2.33c1.43-1.69,2.83-3.02,4.19-3.98,1.36-.96,2.67-1.43,3.93-1.43.75,0,1.32.18,1.73.54.41.36.61.84.61,1.44,0,.81-.37,1.8-1.12,2.95-.75,1.15-1.87,2.35-3.37,3.58-.9.75-2.1,1.56-3.59,2.42-1.5.87-3.25,1.59-5.28,2.16h-.07c-.75,1.36-1.41,2.68-2,3.96-.58,1.28-1.04,2.42-1.37,3.45-.33,1.02-.49,1.84-.49,2.46,0,.33.03.63.1.89.04.18.15.34.31.48.17.14.37.21.61.21.31,0,.67-.12,1.07-.36.41-.24.86-.67,1.37-1.29.31-.37.63-.83.96-1.35.33-.53.64-1.07.92-1.63.29-.56.52-1.06.69-1.5.37-.88.56-1.68.56-2.41s-.16-1.17-.48-1.39c-.32-.22-.8-.33-1.43-.33-.4,0-.59-.11-.59-.33,0-.09.06-.18.18-.26.12-.09.29-.13.51-.13.84,0,1.58.31,2.24.92.66.62.99,1.47.99,2.57ZM208.63,1.09c-.75,0-1.57.31-2.46.94-.89.63-1.81,1.47-2.75,2.52-.95,1.06-1.88,2.25-2.79,3.58-.91,1.33-1.78,2.7-2.59,4.11,1.69-.53,3.23-1.2,4.62-2.03,1.39-.82,2.51-1.59,3.36-2.29,1.3-1.08,2.26-2.12,2.9-3.12.64-1,.96-1.82.96-2.46,0-.37-.1-.68-.31-.91-.21-.23-.52-.35-.94-.35Z"/>
      <path class="cls-2" d="M210.05,21.08c-.22.46-.47.9-.76,1.32.09.02.19.03.3.03.53,0,1.09-.27,1.7-.81.6-.54,1.2-1.46,1.8-2.75.35-.77.71-1.53,1.07-2.29.36-.76.69-1.43.97-2.03.13-.26.31-.45.53-.54.22-.1.48-.15.79-.15h1.78c-.38.29-.69.57-.94.84-.25.28-.53.65-.82,1.12-.3.47-.7,1.17-1.2,2.09-.2.37-.43.9-.71,1.57-.27.67-.52,1.37-.74,2.09-.22.73-.33,1.36-.33,1.91,0,.33.05.6.15.82.1.22.29.33.58.33.42,0,.85-.18,1.29-.54.44-.36.87-.83,1.29-1.42.42-.58.81-1.21,1.17-1.9.36-.68.68-1.33.94-1.95.26,0,.4.1.4.3-.26.66-.59,1.36-.97,2.09-.38.74-.82,1.42-1.32,2.06s-1.03,1.16-1.62,1.57c-.58.41-1.2.61-1.86.61-.44,0-.86-.17-1.25-.51s-.59-.87-.59-1.6c0-.44.11-1.02.33-1.75-.4.53-.8.89-1.22,1.09-.42.2-.87.3-1.35.3-.2,0-.37-.01-.53-.03-.59.7-1.28,1.29-2.05,1.76-.77.47-1.62.71-2.54.71s-1.55-.25-1.93-.76c-.39-.51-.58-1.13-.58-1.88,0-.44.05-.87.16-1.29s.24-.84.4-1.25c.22-.53.53-1.17.92-1.91.4-.75.83-1.48,1.32-2.21.48-.73.97-1.33,1.45-1.81s.91-.73,1.29-.73c.18,0,.36.03.56.08.2.05.41.08.63.08.09,0,.17-.01.23-.03-.13.07-.34.27-.63.61-.29.34-.61.75-.97,1.24-.36.48-.73.98-1.1,1.48-.37.51-.7.96-.99,1.35.37-.4.87-.8,1.48-1.2.62-.41,1.26-.61,1.95-.61.75,0,1.3.21,1.65.63s.53.91.53,1.48c0,.4-.06.81-.18,1.24-.12.43-.27.81-.45,1.14ZM206.92,21.01c0-.31.1-.55.3-.73.2-.18.42-.26.66-.26s.42.07.54.2c.12.13.18.29.18.46v.16c.13-.37.22-.71.26-1.02.04-.31.07-.56.07-.76,0-.44-.09-.81-.26-1.1s-.48-.45-.92-.45c-.55,0-1.15.31-1.81.92-.66.62-1.25,1.41-1.78,2.38-.33.62-.57,1.15-.71,1.62-.14.46-.21.9-.21,1.32,0,.35.09.64.26.86s.5.33.96.33c.42,0,.94-.22,1.57-.66.63-.44,1.2-1.04,1.73-1.81-.55-.4-.82-.88-.82-1.45Z"/>
      <path class="cls-2" d="M219.85,25.2c-.24,0-.53-.05-.87-.17-.34-.11-.64-.31-.89-.61s-.38-.74-.38-1.34.19-1.23.56-1.98c.37-.75.7-1.41.99-1.98-.24,0-.36-.1-.36-.3.02-.07.12-.27.3-.63.18-.35.38-.77.63-1.25.24-.48.48-.95.71-1.4.23-.45.41-.8.54-1.04.26-.48.68-.73,1.25-.73h2.04c-.37.29-.71.6-1.01.94s-.67.96-1.11,1.86c-.31.62-.58,1.16-.81,1.63-.23.47-.46.95-.69,1.43-.23.48-.42.89-.58,1.22-.29.62-.47,1.11-.56,1.47-.09.36-.13.7-.13,1.01,0,.73.24,1.09.73,1.09.53,0,1.17-.43,1.91-1.29.62-.73,1.22-1.59,1.81-2.61.59-1.01,1.16-2.06,1.7-3.13s1.02-2.05,1.44-2.9c.24-.48.67-.73,1.29-.73h1.81c-.48.4-.97.99-1.47,1.78-.5.79-1.04,1.8-1.63,3.04-.15.33-.35.75-.59,1.25-.24.51-.46,1.04-.64,1.62-.19.57-.28,1.14-.28,1.72,0,.77.27,1.15.82,1.15.75,0,1.47-.52,2.18-1.55.7-1.03,1.4-2.35,2.08-3.96.18,0,.28.01.31.03.03.02.06.11.08.26-.24.59-.53,1.24-.87,1.93-.34.69-.73,1.36-1.15,2-.43.64-.9,1.16-1.42,1.55s-1.08.59-1.7.59c-.55,0-1-.2-1.35-.61-.35-.41-.53-.98-.53-1.73,0-.59.11-1.23.33-1.91-.37.66-.8,1.32-1.29,1.98-.48.66-1,1.2-1.55,1.63s-1.1.64-1.65.64ZM230.14,8.68c.22-.02.35.03.4.16.04.13.07.24.07.33-.35.62-.87,1.18-1.57,1.7-.69.52-1.5.78-2.42.78-.86,0-1.56-.25-2.11-.74-.55-.5-.82-1.08-.82-1.77,0-.5.14-.93.41-1.29.27-.35.63-.53,1.07-.53.35,0,.6.1.74.3.14.2.21.38.21.56,0,.24-.1.44-.3.59-.4.22-.59.53-.59.92,0,.35.12.65.35.89.23.24.62.36,1.17.36.7,0,1.36-.21,1.98-.63.62-.42,1.09-.97,1.42-1.65Z"/>
      <path class="cls-2" d="M237.23,25.2c-.24,0-.53-.05-.87-.17-.34-.11-.64-.31-.89-.61s-.38-.74-.38-1.34.12-1.24.36-2.01.54-1.57.91-2.41c.36-.83.74-1.62,1.12-2.36.38-.74.71-1.34.97-1.8.26-.48.68-.73,1.25-.73h2.04c-.24.2-.48.41-.73.63-.24.22-.51.55-.81.99-.3.44-.68,1.09-1.14,1.95-.2.35-.42.81-.66,1.37s-.48,1.14-.73,1.73-.44,1.15-.59,1.67-.23.93-.23,1.24c0,.73.24,1.09.73,1.09.53,0,1.17-.43,1.91-1.29.62-.73,1.22-1.59,1.81-2.61.59-1.01,1.16-2.06,1.7-3.13s1.02-2.05,1.44-2.9c.24-.48.67-.73,1.29-.73h1.81c-.48.4-.97.99-1.47,1.78-.5.79-1.04,1.8-1.63,3.04-.15.33-.35.75-.59,1.25-.24.51-.46,1.04-.64,1.62-.19.57-.28,1.14-.28,1.72,0,.77.27,1.15.82,1.15.75,0,1.47-.52,2.18-1.55.7-1.03,1.4-2.35,2.08-3.96.18,0,.28.01.31.03.03.02.06.11.08.26-.24.59-.53,1.24-.87,1.93-.34.69-.73,1.36-1.15,2-.43.64-.9,1.16-1.42,1.55s-1.08.59-1.7.59c-.55,0-1-.2-1.35-.61-.35-.41-.53-.98-.53-1.73,0-.59.11-1.23.33-1.91-.37.66-.8,1.32-1.29,1.98-.48.66-1,1.2-1.55,1.63s-1.1.64-1.65.64Z"/>
      <path class="cls-2" d="M254.48,25.2c-.84,0-1.45-.28-1.85-.84-.4-.56-.59-1.25-.59-2.06,0-.86.2-1.79.59-2.79.4-1,.92-1.95,1.58-2.84.66-.89,1.4-1.62,2.21-2.19.81-.57,1.63-.86,2.44-.86.64,0,1.18.21,1.62.63.44.42.65.91.63,1.48.66-1.5,1.2-3,1.63-4.5.43-1.51.64-3.03.64-4.57,0-1.19-.18-2.09-.53-2.72-.35-.63-.78-1.06-1.29-1.3-.51-.24-.99-.36-1.45-.36-.95,0-1.9.42-2.87,1.25-.97.84-1.79,2.12-2.47,3.86-.07.15-.12.29-.15.41-.03.12-.07.31-.12.58-.84,0-1.25-.24-1.25-.73,0-.29.11-.63.33-1.04.22-.41.41-.73.56-.97.81-1.23,1.81-2.2,3-2.9s2.35-1.06,3.5-1.06c.79,0,1.53.18,2.21.54.68.36,1.23.92,1.65,1.67.42.75.63,1.71.63,2.9,0,1.28-.19,2.69-.58,4.24-.38,1.55-.9,3.11-1.55,4.68-.65,1.57-1.4,3.03-2.24,4.37-.85,1.34-1.73,2.45-2.66,3.33-.51.48-1.06.9-1.67,1.25-.61.35-1.26.53-1.96.53ZM254.94,24.48c.62,0,1.24-.33,1.88-1.01s1.23-1.47,1.78-2.39c.24-.4.51-.87.79-1.43.29-.56.56-1.12.83-1.68.26-.56.44-1.03.53-1.4-.07-.73-.21-1.22-.45-1.48-.23-.26-.51-.4-.84-.4-.59,0-1.22.28-1.86.84-.65.56-1.25,1.28-1.81,2.16-.56.88-1.02,1.79-1.37,2.74-.35.95-.53,1.81-.53,2.61,0,.4.08.74.23,1.02.15.29.43.43.82.43Z"/>
      <path class="cls-2" d="M265.57,25.2c-.9,0-1.57-.32-2-.97s-.64-1.44-.64-2.36c0-.86.17-1.75.5-2.67.35-1.01.84-1.94,1.47-2.77.63-.83,1.32-1.51,2.08-2.03s1.51-.78,2.26-.78c.9,0,1.57.31,2,.92.43.62.64,1.4.64,2.34,0,.66-.11,1.35-.33,2.08s-.52,1.44-.89,2.14c.29.29.69.43,1.22.43.62,0,1.14-.2,1.58-.59.44-.4.87-1.1,1.29-2.11.26,0,.4.1.4.3-.42,1.01-.9,1.75-1.43,2.23-.54.47-1.23.7-2.06.68-.51,0-.92-.14-1.25-.43-.62,1.01-1.35,1.86-2.19,2.56-.85.69-1.72,1.04-2.62,1.04ZM266.03,24.48c.51,0,1.01-.21,1.52-.64s.97-.92,1.39-1.47c.42-.55.71-1.02.89-1.42-.35-.64-.56-1.12-.61-1.44-.06-.32-.08-.55-.08-.71,0-.42.11-.74.33-.96s.44-.33.66-.33c.31,0,.57.13.79.4.04-.24.08-.47.1-.68.02-.21.03-.41.03-.61,0-.57-.11-1.04-.31-1.4-.21-.36-.53-.54-.97-.54-.46,0-.95.2-1.45.59s-.98.92-1.43,1.58c-.45.66-.84,1.4-1.17,2.21-.29.68-.51,1.33-.66,1.93-.15.61-.23,1.16-.23,1.67,0,.55.1.99.3,1.32.2.33.5.5.92.5Z"/>
      <path class="cls-2" d="M292.28,2.9c.04-.07.12-.1.23-.1.18,0,.26.04.25.12-.01.08-.06.19-.15.35-.18.29-.42.61-.74.97-.32.36-.71.68-1.17.94s-1.02.4-1.68.4c-.55,0-1.13-.12-1.73-.35-.6-.23-1.21-.49-1.81-.78-.6-.29-1.17-.54-1.7-.78-.53-.23-.99-.35-1.39-.35-.64,0-1.14.2-1.52.61-.37.41-.56.93-.56,1.57,0,.59.15,1.3.45,2.13.3.82.63,1.71,1.01,2.67.37.96.71,1.93,1.01,2.94s.45,1.97.45,2.92c0,1.03-.2,2.08-.59,3.15-.4,1.07-.93,2.04-1.6,2.94s-1.42,1.61-2.24,2.14c-.83.54-1.67.81-2.52.81s-1.48-.28-1.88-.84c-.4-.56-.59-1.25-.59-2.06,0-.99.23-2.02.69-3.1.42-1.01.97-1.94,1.67-2.77.69-.83,1.45-1.51,2.26-2.03s1.62-.78,2.41-.78c.18,0,.37.02.58.05s.43.1.68.21c-.31-1.05-.67-2.14-1.09-3.25-.42-1.11-.79-2.15-1.12-3.13-.33-.98-.49-1.82-.49-2.52,0-.9.31-1.66.92-2.28.62-.62,1.5-.92,2.64-.92.64,0,1.26.12,1.86.35.6.23,1.2.49,1.78.79.58.3,1.16.56,1.73.79.57.23,1.14.35,1.72.35s1.07-.1,1.42-.31.64-.49.86-.84ZM281.99,16.39c0-.2-.02-.43-.05-.71-.03-.27-.12-.51-.26-.71-.14-.2-.37-.3-.68-.3-.53,0-1.19.37-1.98,1.12-.79.75-1.54,1.84-2.24,3.27-.35.75-.63,1.47-.84,2.16-.21.69-.31,1.29-.31,1.8,0,.44.09.79.26,1.06.18.26.47.4.89.4.55,0,1.13-.23,1.73-.68.6-.45,1.17-1.06,1.7-1.83.53-.77.96-1.64,1.29-2.61.33-.97.5-1.96.5-2.97Z"/>
      <path class="cls-2" d="M279.65,34.21c-.26,0-.49-.03-.68-.08-.19-.06-.43-.08-.74-.08.11-.15.38-.61.79-1.37.42-.76.91-1.7,1.47-2.82.56-1.12,1.14-2.32,1.75-3.6.61-1.28,1.17-2.53,1.68-3.78.52-1.24.92-2.34,1.2-3.28.15-.51.27-1.08.36-1.73.09-.65.13-1.38.13-2.19,0-.31-.03-.57-.1-.79-.07-.22-.19-.34-.36-.36l1.65-.26c.13-.02.25-.04.36-.05.11-.01.21-.02.3-.02.2,0,.33.07.41.21.08.14.12.43.12.87,0,.55-.09,1.25-.28,2.09s-.4,1.59-.64,2.23c.24-.4.55-.9.94-1.52s.83-1.24,1.34-1.88c.51-.64,1.03-1.17,1.58-1.6.55-.43,1.09-.64,1.62-.64.11,0,.25.02.43.07.62.15,1.05.46,1.3.91.25.45.38.98.38,1.6,0,.66-.13,1.39-.38,2.18-.25.79-.59,1.57-1.01,2.33-.42.76-.88,1.45-1.39,2.06-.62.77-1.35,1.39-2.21,1.85-.86.46-1.74.69-2.64.69-.81,0-1.57-.21-2.28-.63l-3.2,7.88c-.31.75-.62,1.22-.92,1.42-.31.2-.64.3-.99.3ZM285.98,24.54c.62,0,1.31-.29,2.08-.86.77-.57,1.51-1.3,2.23-2.19.71-.89,1.31-1.79,1.8-2.69.33-.62.57-1.18.73-1.7.15-.52.23-.96.23-1.34,0-.86-.31-1.29-.92-1.29-.29,0-.66.15-1.11.46-.45.31-.97.87-1.57,1.68-.64.88-1.34,1.98-2.09,3.32-.76,1.33-1.53,2.73-2.33,4.21.26.26.58.4.96.4Z"/>
      <path class="cls-2" d="M302.87,21.08c-.22.46-.47.9-.76,1.32.09.02.19.03.3.03.53,0,1.09-.27,1.7-.81.6-.54,1.2-1.46,1.8-2.75.35-.77.71-1.53,1.07-2.29.36-.76.69-1.43.97-2.03.13-.26.31-.45.53-.54.22-.1.48-.15.79-.15h1.78c-.38.29-.69.57-.94.84-.25.28-.53.65-.82,1.12-.3.47-.7,1.17-1.2,2.09-.2.37-.43.9-.71,1.57-.27.67-.52,1.37-.74,2.09-.22.73-.33,1.36-.33,1.91,0,.33.05.6.15.82.1.22.29.33.58.33.42,0,.85-.18,1.29-.54.44-.36.87-.83,1.29-1.42.42-.58.81-1.21,1.17-1.9.36-.68.68-1.33.94-1.95.26,0,.4.1.4.3-.26.66-.59,1.36-.97,2.09-.38.74-.82,1.42-1.32,2.06s-1.03,1.16-1.62,1.57c-.58.41-1.2.61-1.86.61-.44,0-.86-.17-1.25-.51s-.59-.87-.59-1.6c0-.44.11-1.02.33-1.75-.4.53-.8.89-1.22,1.09-.42.2-.87.3-1.35.3-.2,0-.37-.01-.53-.03-.59.7-1.28,1.29-2.05,1.76-.77.47-1.62.71-2.54.71s-1.55-.25-1.93-.76c-.39-.51-.58-1.13-.58-1.88,0-.44.05-.87.16-1.29s.24-.84.4-1.25c.22-.53.53-1.17.92-1.91.4-.75.83-1.48,1.32-2.21.48-.73.97-1.33,1.45-1.81s.91-.73,1.29-.73c.18,0,.36.03.56.08.2.05.41.08.63.08.09,0,.17-.01.23-.03-.13.07-.34.27-.63.61-.29.34-.61.75-.97,1.24-.36.48-.73.98-1.1,1.48-.37.51-.7.96-.99,1.35.37-.4.87-.8,1.48-1.2.62-.41,1.26-.61,1.95-.61.75,0,1.3.21,1.65.63s.53.91.53,1.48c0,.4-.06.81-.18,1.24-.12.43-.27.81-.45,1.14ZM299.74,21.01c0-.31.1-.55.3-.73.2-.18.42-.26.66-.26s.42.07.54.2c.12.13.18.29.18.46v.16c.13-.37.22-.71.26-1.02.04-.31.07-.56.07-.76,0-.44-.09-.81-.26-1.1s-.48-.45-.92-.45c-.55,0-1.15.31-1.81.92-.66.62-1.25,1.41-1.78,2.38-.33.62-.57,1.15-.71,1.62-.14.46-.21.9-.21,1.32,0,.35.09.64.26.86s.5.33.96.33c.42,0,.94-.22,1.57-.66.63-.44,1.2-1.04,1.73-1.81-.55-.4-.82-.88-.82-1.45Z"/>
      <path class="cls-2" d="M312.67,25.2c-.24,0-.53-.05-.87-.17-.34-.11-.64-.31-.89-.61s-.38-.74-.38-1.34.19-1.23.56-1.98c.37-.75.7-1.41.99-1.98-.24,0-.36-.1-.36-.3.02-.07.12-.27.3-.63.18-.35.38-.77.63-1.25.24-.48.48-.95.71-1.4.23-.45.41-.8.54-1.04.26-.48.68-.73,1.25-.73h2.04c-.37.29-.71.6-1.01.94s-.67.96-1.11,1.86c-.31.62-.58,1.16-.81,1.63-.23.47-.46.95-.69,1.43-.23.48-.42.89-.58,1.22-.29.62-.47,1.11-.56,1.47-.09.36-.13.7-.13,1.01,0,.73.24,1.09.73,1.09.53,0,1.17-.43,1.91-1.29.62-.73,1.22-1.59,1.81-2.61.59-1.01,1.16-2.06,1.7-3.13s1.02-2.05,1.44-2.9c.24-.48.67-.73,1.29-.73h1.81c-.48.4-.97.99-1.47,1.78-.5.79-1.04,1.8-1.63,3.04-.15.33-.35.75-.59,1.25-.24.51-.46,1.04-.64,1.62-.19.57-.28,1.14-.28,1.72,0,.77.27,1.15.82,1.15.75,0,1.47-.52,2.18-1.55.7-1.03,1.4-2.35,2.08-3.96.18,0,.28.01.31.03.03.02.06.11.08.26-.24.59-.53,1.24-.87,1.93-.34.69-.73,1.36-1.15,2-.43.64-.9,1.16-1.42,1.55s-1.08.59-1.7.59c-.55,0-1-.2-1.35-.61-.35-.41-.53-.98-.53-1.73,0-.59.11-1.23.33-1.91-.37.66-.8,1.32-1.29,1.98-.48.66-1,1.2-1.55,1.63s-1.1.64-1.65.64ZM322.96,8.68c.22-.02.35.03.4.16.04.13.07.24.07.33-.35.62-.87,1.18-1.57,1.7-.69.52-1.5.78-2.42.78-.86,0-1.56-.25-2.11-.74-.55-.5-.82-1.08-.82-1.77,0-.5.14-.93.41-1.29.27-.35.63-.53,1.07-.53.35,0,.6.1.74.3.14.2.21.38.21.56,0,.24-.1.44-.3.59-.4.22-.59.53-.59.92,0,.35.12.65.35.89.23.24.62.36,1.17.36.7,0,1.36-.21,1.98-.63.62-.42,1.09-.97,1.42-1.65Z"/>
      <path class="cls-1" d="M343.35,11.39v13.81h-1.4v-11.05l-5.43,9.29h-.69l-5.43-9.23v10.99h-1.4v-13.81h1.2l6,10.24,5.94-10.24h1.2Z"/>
      <path class="cls-1" d="M348,11.39h1.44v11.44l8.84-11.44h1.32v13.81h-1.44v-11.42l-8.84,11.42h-1.32v-13.81Z"/>
      <path class="cls-1" d="M373.58,12.65c1,.84,1.5,2,1.5,3.47s-.5,2.63-1.5,3.46c-1,.83-2.38,1.25-4.14,1.25h-3.71v4.36h-1.46v-13.81h5.17c1.76,0,3.14.42,4.14,1.26ZM372.53,18.66c.72-.6,1.09-1.44,1.09-2.54s-.36-1.98-1.09-2.57c-.72-.6-1.77-.9-3.14-.9h-3.67v6.91h3.67c1.37,0,2.41-.3,3.14-.9Z"/>
    </g>
  </g>
</svg>