<?xml version="1.0" encoding="UTF-8"?>
<svg id="_Слой_2" data-name="Слой 2" xmlns="http://www.w3.org/2000/svg" viewBox="0 0 427.28 17.64">
  <defs>
    <style>
      .cls-1 {
        fill: #fff;
      }

      .cls-2 {
        fill: #ffecc6;
      }
    </style>
  </defs>
  <g id="_Слой_1-2" data-name="Слой 1">
    <g>
      <path class="cls-1" d="M11.54,3.55v13.81h-1.44v-6.37H1.46v6.37H0V3.55h1.46v6.16h8.64V3.55h1.44Z"/>
      <path class="cls-1" d="M25.04,13.67h-7.69l-1.66,3.69h-1.52l6.31-13.81h1.44l6.31,13.81h-1.54l-1.66-3.69ZM24.5,12.49l-3.31-7.42-3.32,7.42h6.63Z"/>
      <path class="cls-1" d="M42.5,3.55v13.81h-1.44V4.81h-8.74v12.55h-1.44V3.55h11.62Z"/>
      <path class="cls-1" d="M49.49,16.56c-1.11-.61-1.98-1.45-2.6-2.52s-.94-2.26-.94-3.59.31-2.53.94-3.59,1.49-1.9,2.6-2.52c1.11-.61,2.35-.92,3.72-.92s2.6.3,3.7.91c1.1.61,1.96,1.44,2.59,2.52.63,1.07.95,2.27.95,3.6s-.32,2.53-.95,3.6c-.63,1.07-1.5,1.91-2.59,2.52-1.1.61-2.33.91-3.7.91s-2.61-.31-3.72-.92ZM56.17,15.44c.88-.49,1.57-1.18,2.07-2.05.5-.88.75-1.85.75-2.93s-.25-2.06-.75-2.93c-.5-.87-1.19-1.56-2.07-2.05s-1.87-.74-2.96-.74-2.08.25-2.97.74-1.58,1.18-2.09,2.05c-.51.88-.76,1.85-.76,2.93s.25,2.05.76,2.93c.51.88,1.2,1.56,2.09,2.05s1.88.74,2.97.74,2.08-.25,2.96-.74Z"/>
      <path class="cls-1" d="M74.38,3.55v13.81h-1.44V4.81h-6.67l-.16,4.62c-.07,1.91-.22,3.44-.46,4.61-.24,1.16-.62,2.03-1.12,2.6-.5.57-1.16.86-1.99.86-.36,0-.72-.05-1.11-.14l.12-1.3c.22.05.44.08.65.08.58,0,1.05-.23,1.41-.69.36-.46.63-1.17.82-2.14s.31-2.25.38-3.84l.2-5.92h9.37Z"/>
      <path class="cls-1" d="M90.58,3.55v13.81h-1.44v-6.37h-8.64v6.37h-1.46V3.55h1.46v6.16h8.64V3.55h1.44Z"/>
      <path class="cls-1" d="M105,16.1v1.26h-9.77V3.55h9.47v1.26h-8.01v4.91h7.14v1.24h-7.14v5.13h8.31Z"/>
      <path class="cls-1" d="M119.78,3.55v13.81h-1.44v-6.37h-8.64v6.37h-1.46V3.55h1.46v6.16h8.64V3.55h1.44Z"/>
      <path class="cls-1" d="M135.98,3.55v13.81h-1.44v-6.37h-8.64v6.37h-1.46V3.55h1.46v6.16h8.64V3.55h1.44Z"/>
      <path class="cls-1" d="M150.15,9.59c.86.74,1.29,1.81,1.29,3.24s-.46,2.61-1.37,3.38c-.92.77-2.23,1.15-3.96,1.15h-5.49V3.55h1.44v4.93h4.34c1.63,0,2.88.37,3.74,1.11ZM148.99,15.35c.66-.57,1-1.4,1-2.51,0-2.12-1.3-3.18-3.91-3.18h-4v6.53h4c1.28,0,2.25-.28,2.91-.85ZM153.83,3.55h1.44v13.81h-1.44V3.55Z"/>
      <path class="cls-1" d="M159.93,3.55h1.44v11.44l8.84-11.44h1.32v13.81h-1.44V5.94l-8.84,11.42h-1.32V3.55ZM163.35,1.87c-.57-.45-.86-1.07-.88-1.87h1.09c.01.53.21.94.59,1.24.38.3.89.45,1.54.45s1.14-.15,1.53-.45c.39-.3.59-.72.6-1.24h1.08c-.01.8-.31,1.43-.89,1.87-.58.45-1.36.67-2.33.67s-1.77-.22-2.34-.67Z"/>
      <path class="cls-2" d="M178.89,17.36c-.26,0-.47,0-.64.02-.17.01-.35.06-.54.16.86-1.65,1.67-3.3,2.44-4.96s1.54-3.23,2.33-4.71c.46-.83.85-1.42,1.17-1.76.31-.34.74-.5,1.27-.5.18,0,.38.03.59.09.21.06.42.09.63.09.14,0,.24-.01.31-.04-.33.19-.74.64-1.25,1.38-.51.73-1.03,1.57-1.57,2.52-.53.95-1.01,1.84-1.43,2.68.44-.53.9-1.07,1.37-1.6.47-.53,1-1.04,1.58-1.53.51-.44,1.05-.92,1.62-1.44.57-.52,1.13-.97,1.69-1.34.56-.37,1.04-.56,1.46-.56.16,0,.27.01.31.04.44.19.66.49.66.9,0,.14-.06.35-.17.63-.3.79-.69,1.6-1.17,2.42-.48.82-.92,1.65-1.34,2.49.35-.42.78-.93,1.3-1.53.52-.6,1.05-1.14,1.58-1.6.51-.46,1.16-.95,1.95-1.46.79-.51,1.57-.95,2.33-1.32.76-.37,1.38-.56,1.84-.56.16,0,.28.01.35.04-.51.9-.96,1.72-1.34,2.45-.38.73-.77,1.51-1.17,2.33-.39.82-.75,1.61-1.06,2.37-.31.75-.52,1.39-.61,1.9-.07.3-.1.58-.1.83,0,.37.07.62.21.73.14.12.29.17.45.17.46,0,.92-.2,1.37-.59s.9-.9,1.34-1.51c.44-.61.84-1.27,1.2-1.97.36-.7.67-1.34.92-1.95.28,0,.42.1.42.31-.25.63-.57,1.32-.96,2.07-.38.75-.82,1.47-1.3,2.14-.49.67-1.02,1.23-1.6,1.67-.58.44-1.21.66-1.88.66-.49,0-.95-.16-1.37-.49-.43-.33-.64-.93-.64-1.81,0-.95.23-1.9.68-2.85.45-.95.92-1.82,1.41-2.61.23-.39.35-.71.35-.94,0-.28-.14-.42-.42-.42-.23,0-.55.12-.96.35-.41.23-.91.64-1.51,1.22-.37.35-.81.83-1.3,1.44-.5.62-1,1.28-1.51,2s-.95,1.43-1.32,2.12c-.37.7-.62,1.31-.73,1.84-.35,0-.63-.14-.83-.43-.21-.29-.31-.63-.31-1.03v-.21c0-.07.01-.15.03-.24.12-.72.3-1.33.56-1.83.25-.5.54-1.08.87-1.76.16-.3.35-.65.56-1.06.21-.41.39-.8.56-1.18.16-.38.24-.7.24-.96,0-.23-.09-.35-.28-.35-.21,0-.48.1-.82.31s-.66.45-.96.71c-.3.27-.53.47-.7.61-.58.56-1.28,1.36-2.1,2.4-.82,1.04-1.72,2.53-2.7,4.45-.14.26-.3.41-.49.47s-.48.09-.87.09ZM192.74,3.69c-.58,0-1.19-.08-1.83-.24-.64-.16-1.28-.32-1.91-.49-.64-.16-1.23-.24-1.79-.24-.46,0-.89.08-1.29.23-.39.15-.72.45-.97.89l-.1.17c-.07.09-.13.14-.17.14s-.09-.04-.14-.1c-.05-.07-.06-.15-.04-.24.25-.65.72-1.17,1.39-1.55s1.44-.57,2.3-.57c.6,0,1.37.08,2.31.24s1.79.24,2.56.24c.49,0,1.04-.03,1.65-.09.61-.06,1.21-.21,1.77-.45.57-.24,1-.64,1.3-1.2.23,0,.35.08.35.24-.44,1.04-1.04,1.81-1.81,2.3-.76.49-1.96.73-3.58.73Z"/>
      <path class="cls-2" d="M201.29,17.5c-.86,0-1.63-.28-2.31-.83-.68-.56-1.03-1.4-1.03-2.54,0-.95.21-1.96.64-3.03.43-1.07,1-2.07,1.71-3.01.71-.94,1.5-1.71,2.37-2.3.87-.59,1.75-.89,2.63-.89.44,0,.87.13,1.29.38.42.26.63.7.63,1.32,0,.58-.22,1.22-.66,1.91-.44.7-1.07,1.35-1.88,1.95-.35.26-.79.5-1.32.73-.53.23-1.07.42-1.6.57-.53.15-.97.23-1.32.23-.12.28-.23.65-.33,1.11s-.16.94-.16,1.43c0,.58.12,1.1.35,1.57.23.46.66.7,1.29.7.77,0,1.48-.22,2.14-.66.66-.44,1.25-1,1.77-1.67.52-.67.97-1.36,1.34-2.05.37-.7.66-1.29.87-1.77.28,0,.42.1.42.31-.3.65-.64,1.36-1.03,2.12s-.83,1.48-1.36,2.14-1.15,1.21-1.88,1.63c-.73.43-1.58.64-2.56.64ZM200.67,11.38c.32,0,.87-.12,1.63-.37.77-.24,1.46-.63,2.09-1.17.6-.53,1.07-1.12,1.39-1.76.33-.64.49-1.18.49-1.62,0-.51-.19-.77-.56-.77-.28,0-.66.19-1.15.56-.49.37-1.09,1-1.81,1.88-.44.56-.86,1.16-1.25,1.81-.4.65-.67,1.12-.83,1.43ZM203.76,3.34c-.3,0-.55-.11-.75-.33s-.3-.48-.3-.78c0-.39.15-.73.45-1.01.3-.28.64-.42,1.01-.42.32,0,.59.1.8.3s.31.45.31.75c0,.37-.15.71-.45,1.03-.3.31-.66.47-1.08.47ZM207.66,3.34c-.3,0-.55-.11-.75-.33s-.3-.48-.3-.78c0-.39.15-.73.45-1.01.3-.28.64-.42,1.01-.42.32,0,.59.1.8.3s.31.45.31.75c0,.37-.15.71-.45,1.03-.3.31-.66.47-1.08.47Z"/>
      <path class="cls-2" d="M217.96,13.36c.23,0,.35.2.35.59-.53.9-1.15,1.72-1.84,2.45-.7.73-1.46,1.1-2.3,1.1-.46,0-.95-.16-1.44-.49-.5-.33-.75-.93-.75-1.81,0-.25.02-.53.07-.82.05-.29.13-.61.24-.96.19-.46.41-.96.66-1.5s.67-1.26,1.25-2.19c.16-.25.26-.45.29-.59.04-.14.05-.25.05-.35,0-.28-.13-.42-.38-.42-.21,0-.52.12-.92.35-.41.23-.91.64-1.51,1.22-.58.56-1.27,1.35-2.07,2.37-.8,1.02-1.72,2.53-2.77,4.52-.16.3-.34.46-.54.49-.2.02-.47.05-.82.07-.23.02-.45.04-.66.05-.21.01-.38.08-.52.19.83-1.69,1.63-3.37,2.4-5.03.77-1.66,1.55-3.24,2.37-4.75.46-.83.86-1.42,1.18-1.76.32-.34.75-.5,1.29-.5.19,0,.38.03.59.09.21.06.42.09.63.09.14,0,.24-.01.31-.04-.33.19-.75.64-1.27,1.38-.52.73-1.05,1.57-1.58,2.52-.53.95-1.01,1.84-1.43,2.68.44-.53.91-1.07,1.39-1.6.49-.53,1.02-1.04,1.6-1.53.56-.49,1.22-.99,2-1.51.78-.52,1.54-.96,2.28-1.3.74-.35,1.33-.52,1.77-.52.16,0,.28.01.35.04-.51.9-.96,1.72-1.34,2.45-.38.73-.77,1.51-1.17,2.33-.39.82-.75,1.61-1.06,2.37-.31.75-.52,1.39-.61,1.9-.07.3-.1.58-.1.83,0,.37.07.62.21.73.14.12.29.17.45.17.53,0,1.1-.35,1.69-1.04.59-.7,1.14-1.45,1.65-2.26Z"/>
      <path class="cls-2" d="M224.67,11.87c-.6,1.02-1.18,1.96-1.74,2.82-.56.86-1.13,1.54-1.72,2.04-.59.5-1.26.75-2,.75-.56,0-1.06-.17-1.5-.5-.44-.34-.66-.83-.66-1.48,0-.39.09-.82.26-1.29.17-.46.43-.86.77-1.18.34-.32.75-.46,1.23-.42.33.02.61.15.87.38-.42.39-.74.86-.97,1.39-.23.53-.35,1-.35,1.39,0,.23.05.45.16.64.1.2.29.3.57.3.44,0,.9-.25,1.38-.75.47-.5.97-1.15,1.5-1.95.52-.8,1.04-1.63,1.55-2.49.67-1.09,1.34-2.1,2-3.03s1.28-1.65,1.86-2.16c.74-.63,1.45-.94,2.12-.94h.14c.93,0,1.18.44.76,1.32l-1.22,2.61c-.21.42-.46.93-.75,1.55-.29.62-.57,1.24-.83,1.88-.27.64-.48,1.24-.63,1.81-.15.57-.2,1.03-.14,1.37.06.35.28.52.68.52.58,0,1.15-.3,1.72-.9.57-.6,1.11-1.35,1.62-2.24.51-.89.96-1.78,1.36-2.66.09,0,.19.03.28.09.09.06.14.13.14.23-.42,1.04-.9,2.05-1.44,3.03-.54.97-1.17,1.77-1.88,2.4-.71.63-1.53.94-2.45.94s-1.47-.32-1.69-.96c-.22-.64-.2-1.48.07-2.52s.69-2.19,1.27-3.43c.58-1.24,1.22-2.45,1.91-3.64.25-.42.32-.63.21-.63-.09,0-.25.09-.47.26-.22.17-.42.35-.61.54-.44.42-.92,1-1.43,1.74-.51.74-1.16,1.8-1.95,3.17Z"/>
      <path class="cls-2" d="M240.05,13.01c-.23.49-.5.95-.8,1.39.09.02.2.04.31.04.56,0,1.15-.28,1.79-.85.64-.57,1.27-1.54,1.9-2.91.37-.81.75-1.62,1.13-2.42.38-.8.72-1.51,1.03-2.14.14-.28.32-.47.56-.57.23-.1.51-.16.83-.16h1.88c-.4.3-.73.6-.99.89s-.56.68-.87,1.18c-.31.5-.74,1.23-1.27,2.21-.21.39-.46.95-.75,1.65-.29.71-.55,1.44-.78,2.21-.23.77-.35,1.44-.35,2.02,0,.35.05.64.16.87.1.23.31.35.61.35.56,0,1.14-.31,1.74-.92.6-.61,1.16-1.35,1.67-2.21.32,0,.49.09.49.28-.58,1-1.26,1.87-2.05,2.61-.79.74-1.65,1.11-2.57,1.11-.46,0-.9-.18-1.32-.54-.42-.36-.63-.92-.63-1.69,0-.46.12-1.08.35-1.84-.42.56-.85.94-1.29,1.15-.44.21-.92.31-1.43.31-.21,0-.39-.01-.56-.03-.63.74-1.35,1.36-2.16,1.86-.81.5-1.71.75-2.68.75s-1.63-.27-2.04-.8c-.41-.53-.61-1.19-.61-1.98,0-.46.06-.92.17-1.36.12-.44.25-.88.42-1.32.23-.56.56-1.23.97-2.02.42-.79.88-1.57,1.39-2.33.51-.76,1.02-1.4,1.53-1.91s.96-.77,1.36-.77c.19,0,.38.03.59.09.21.06.43.09.66.09.09,0,.17-.01.24-.03-.14.07-.36.28-.66.64s-.64.79-1.03,1.3c-.38.51-.77,1.03-1.17,1.57s-.74,1.01-1.04,1.43c.39-.42.92-.84,1.57-1.27.65-.43,1.33-.64,2.05-.64.79,0,1.37.22,1.74.66s.56.96.56,1.57c0,.42-.06.85-.19,1.3-.13.45-.29.85-.47,1.2ZM236.74,12.94c0-.33.1-.58.31-.77s.44-.28.7-.28.45.07.57.21c.13.14.19.3.19.49v.17c.14-.39.23-.75.28-1.08.05-.32.07-.59.07-.8,0-.46-.09-.85-.28-1.17-.19-.31-.51-.47-.97-.47-.58,0-1.22.33-1.91.97-.7.65-1.32,1.48-1.88,2.5-.35.65-.6,1.22-.75,1.71-.15.49-.23.95-.23,1.39,0,.37.09.67.28.9s.52.35,1.01.35c.44,0,.99-.23,1.65-.7.66-.46,1.27-1.1,1.83-1.91-.58-.42-.87-.93-.87-1.53Z"/>
      <path class="cls-2" d="M248.78,15.76c0,.23.05.45.16.64.1.2.28.3.54.3.46,0,.94-.25,1.43-.75.49-.5.99-1.15,1.51-1.95.52-.8,1.04-1.63,1.55-2.49.81-1.37,1.53-2.5,2.14-3.41s1.19-1.58,1.72-2.02c.35-.3.65-.49.9-.57.25-.08.51-.12.77-.12h.24c.95,0,1.22.44.8,1.32l-1.25,2.61c-.21.42-.46.93-.75,1.55-.29.62-.57,1.24-.85,1.88s-.5,1.24-.66,1.81c-.16.57-.22,1.03-.17,1.37.05.35.25.52.63.52.3,0,.67-.26,1.1-.78.43-.52.89-1.19,1.39-2,.5-.81,1.01-1.67,1.53-2.57.52-.91,1.04-1.76,1.57-2.58.52-.81,1.01-1.46,1.48-1.95.12-.12.37-.34.77-.68.39-.34.78-.5,1.15-.5h.24c.42,0,.71.1.87.3s.13.54-.1,1.03l-1.22,2.61c-.21.42-.46.93-.75,1.55-.29.62-.57,1.24-.83,1.88s-.48,1.24-.63,1.81c-.15.57-.2,1.03-.14,1.37.06.35.28.52.68.52.58,0,1.15-.3,1.72-.9.57-.6,1.11-1.35,1.62-2.24.51-.89.96-1.78,1.36-2.66.09,0,.19.03.28.09s.14.13.14.23c-.42,1.04-.9,2.05-1.44,3.03-.54.97-1.17,1.77-1.86,2.4-.7.63-1.5.94-2.4.94-.77,0-1.29-.23-1.57-.7s-.37-1.08-.26-1.86c.1-.78.34-1.65.7-2.61.36-.96.79-1.94,1.3-2.94s1.03-1.94,1.57-2.82c.09-.16.09-.24,0-.24-.07,0-.22.13-.45.38s-.37.41-.42.45c-.6.67-1.17,1.46-1.69,2.35s-1.03,1.8-1.53,2.73c-.5.93-1,1.79-1.51,2.59-.51.8-1.04,1.44-1.6,1.93-.56.49-1.17.73-1.84.73-.74,0-1.21-.31-1.41-.92-.2-.61-.17-1.44.07-2.49.24-1.04.67-2.21,1.27-3.51.6-1.3,1.32-2.63,2.16-4,.09-.16.08-.24-.03-.24s-.36.19-.73.56c-.26.26-.5.54-.75.87-.24.32-.56.81-.96,1.44s-.95,1.58-1.67,2.83c-.53.93-1.08,1.82-1.65,2.68-.57.86-1.17,1.56-1.79,2.11-.63.54-1.31.82-2.05.82-.56,0-1.06-.17-1.5-.5-.44-.34-.66-.83-.66-1.48,0-.39.09-.82.26-1.29.17-.46.43-.86.77-1.18.34-.32.75-.46,1.23-.42.33.02.61.15.87.38-.42.39-.74.86-.97,1.39-.23.53-.35,1-.35,1.39Z"/>
      <path class="cls-2" d="M270.28,17.36c-.26,0-.56-.06-.92-.17-.36-.12-.67-.33-.94-.64-.27-.31-.4-.78-.4-1.41s.2-1.3.59-2.09l1.04-2.09c-.26,0-.38-.1-.38-.31.02-.07.13-.29.31-.66s.41-.81.66-1.32c.25-.51.5-1,.75-1.48.24-.48.44-.84.57-1.1.28-.51.72-.77,1.32-.77h2.16c-.4.3-.75.63-1.06.99-.31.36-.7,1.01-1.17,1.97-.33.65-.61,1.22-.85,1.72-.24.5-.49,1-.73,1.51-.24.51-.45.94-.61,1.29-.3.65-.5,1.17-.59,1.55-.09.38-.14.74-.14,1.06,0,.77.25,1.15.77,1.15.56,0,1.23-.45,2.02-1.36.65-.76,1.29-1.68,1.91-2.75.63-1.07,1.22-2.17,1.79-3.3s1.07-2.16,1.51-3.06c.25-.51.71-.77,1.36-.77h1.91c-.51.42-1.03,1.04-1.55,1.88-.52.83-1.1,1.9-1.72,3.2-.16.35-.37.79-.63,1.32-.25.53-.48,1.1-.68,1.7-.2.6-.3,1.21-.3,1.81,0,.81.29,1.22.87,1.22.79,0,1.55-.54,2.3-1.64.74-1.09,1.47-2.48,2.19-4.17.19,0,.3.01.33.04.03.02.06.12.09.28-.26.63-.56,1.3-.92,2.04-.36.73-.77,1.43-1.22,2.1-.45.67-.95,1.22-1.5,1.64-.54.42-1.14.63-1.79.63-.58,0-1.06-.21-1.43-.64-.37-.43-.56-1.04-.56-1.83,0-.63.12-1.3.35-2.02-.39.7-.85,1.39-1.36,2.09-.51.7-1.06,1.27-1.64,1.72s-1.16.68-1.74.68Z"/>
      <path class="cls-1" d="M301.45,3.55v13.81h-1.4V6.31l-5.43,9.29h-.69l-5.43-9.23v10.99h-1.4V3.55h1.2l6,10.24,5.94-10.24h1.2Z"/>
      <path class="cls-1" d="M308.44,16.56c-1.11-.61-1.98-1.45-2.6-2.52s-.94-2.26-.94-3.59.31-2.53.94-3.59,1.49-1.9,2.6-2.52c1.11-.61,2.35-.92,3.72-.92s2.6.3,3.7.91c1.1.61,1.96,1.44,2.59,2.52.63,1.07.95,2.27.95,3.6s-.32,2.53-.95,3.6c-.63,1.07-1.5,1.91-2.59,2.52-1.1.61-2.33.91-3.7.91s-2.61-.31-3.72-.92ZM315.12,15.44c.88-.49,1.57-1.18,2.07-2.05.5-.88.75-1.85.75-2.93s-.25-2.06-.75-2.93c-.5-.87-1.19-1.56-2.07-2.05s-1.87-.74-2.96-.74-2.08.25-2.97.74-1.58,1.18-2.09,2.05c-.51.88-.76,1.85-.76,2.93s.25,2.05.76,2.93c.51.88,1.2,1.56,2.09,2.05s1.88.74,2.97.74,2.08-.25,2.96-.74Z"/>
      <path class="cls-1" d="M337.24,3.55v13.81h-1.4V6.31l-5.43,9.29h-.69l-5.43-9.23v10.99h-1.4V3.55h1.2l6,10.24,5.94-10.24h1.2Z"/>
      <path class="cls-1" d="M351.66,16.1v1.26h-9.77V3.55h9.47v1.26h-8.01v4.91h7.14v1.24h-7.14v5.13h8.31Z"/>
      <path class="cls-1" d="M366.44,3.55v13.81h-1.44v-6.37h-8.64v6.37h-1.46V3.55h1.46v6.16h8.64V3.55h1.44Z"/>
      <path class="cls-1" d="M380.13,4.81h-4.85v12.55h-1.44V4.81h-4.85v-1.26h11.15v1.26Z"/>
      <path class="cls-1" d="M390.84,13.67h-7.69l-1.66,3.69h-1.52l6.31-13.81h1.44l6.31,13.81h-1.54l-1.66-3.69ZM390.31,12.49l-3.31-7.42-3.32,7.42h6.63Z"/>
      <path class="cls-1" d="M411.03,3.55v13.81h-1.4V6.31l-5.43,9.29h-.69l-5.43-9.23v10.99h-1.4V3.55h1.2l6,10.24,5.94-10.24h1.2Z"/>
      <path class="cls-1" d="M415.68,3.55h1.44v11.44l8.84-11.44h1.32v13.81h-1.44V5.94l-8.84,11.42h-1.32V3.55Z"/>
    </g>
  </g>
</svg>