<?xml version="1.0" encoding="UTF-8"?>
<svg id="_Слой_2" data-name="Слой 2" xmlns="http://www.w3.org/2000/svg" viewBox="0 0 506.76 24.98">
  <defs>
    <style>
      .cls-1 {
        fill: #fff;
      }

      .cls-2 {
        fill: #ffecc6;
      }
    </style>
  </defs>
  <g id="_Слой_1-2" data-name="Слой 1">
    <g>
      <path class="cls-1" d="M258.17,10.89h1.44v11.44l8.84-11.44h1.32v13.81h-1.44v-11.42l-8.84,11.42h-1.32v-13.81Z"/>
      <path class="cls-2" d="M284.54,19.2c-.6,1.02-1.18,1.96-1.74,2.82-.56.86-1.13,1.54-1.72,2.04-.59.5-1.26.75-2,.75-.56,0-1.06-.17-1.5-.5-.44-.34-.66-.83-.66-1.48,0-.39.09-.82.26-1.29.17-.46.43-.86.77-1.18.34-.32.75-.46,1.23-.42.33.02.61.15.87.38-.42.39-.74.86-.97,1.39-.23.53-.35,1-.35,1.39,0,.23.05.45.16.64.1.2.29.3.57.3.44,0,.9-.25,1.38-.75.47-.5.97-1.15,1.5-1.95.52-.8,1.04-1.63,1.55-2.49.67-1.09,1.34-2.1,2-3.03s1.28-1.65,1.86-2.16c.74-.63,1.45-.94,2.12-.94h.14c.93,0,1.18.44.76,1.32l-1.22,2.61c-.21.42-.46.93-.75,1.55-.29.62-.57,1.24-.83,1.88-.27.64-.48,1.24-.63,1.81-.15.57-.2,1.03-.14,1.37.06.35.28.52.68.52.58,0,1.15-.3,1.72-.9.57-.6,1.11-1.35,1.62-2.24.51-.89.96-1.78,1.36-2.66.09,0,.19.03.28.09.09.06.14.13.14.23-.42,1.04-.9,2.05-1.44,3.03-.54.97-1.17,1.77-1.88,2.4-.71.63-1.53.94-2.45.94s-1.47-.32-1.69-.96c-.22-.64-.2-1.48.07-2.52s.69-2.19,1.27-3.43c.58-1.24,1.22-2.45,1.91-3.64.25-.42.32-.63.21-.63-.09,0-.25.09-.47.26-.22.17-.42.35-.61.54-.44.42-.92,1-1.43,1.74-.51.74-1.16,1.8-1.95,3.17Z"/>
      <path class="cls-2" d="M293.76,19.69c-.09.21-.24.53-.43.96-.2.43-.41.89-.63,1.39-.22.5-.42.95-.59,1.34-.17.39-.3.66-.37.8-.14.28-.28.45-.43.5-.15.06-.45.09-.89.09h-.66c-.16,0-.34.06-.52.17.37-.74.77-1.55,1.2-2.43s.83-1.72,1.2-2.5.68-1.44.92-1.95.48-.98.7-1.41c.22-.43.47-.9.75-1.41.49-.9.89-1.5,1.2-1.79.31-.29.69-.43,1.13-.43.19,0,.36.01.52.04.16.02.29.05.38.07.05,0,.12.01.23.04s.27.02.5,0c-.3.16-.67.54-1.11,1.15-.44.6-.89,1.29-1.34,2.07s-.86,1.53-1.24,2.24c.44-.44.91-.66,1.39-.66.37,0,.67.06.91.19.23.13.44.19.63.19h.04c.37-1.04.89-2.01,1.57-2.91.67-.89,1.41-1.61,2.21-2.14.8-.53,1.61-.8,2.42-.8.88,0,1.55.33,2.02.97.46.65.7,1.46.7,2.44,0,.7-.12,1.44-.35,2.23-.23.79-.54,1.54-.94,2.26.33.3.75.45,1.29.45.63,0,1.18-.21,1.67-.63.49-.42.95-1.16,1.39-2.23.28,0,.42.1.42.31-.37.93-.85,1.68-1.44,2.24-.59.57-1.35.84-2.28.82-.56-.02-1-.17-1.32-.45-.65,1.07-1.42,1.97-2.31,2.7s-1.81,1.1-2.77,1.1-1.65-.34-2.1-1.03c-.45-.68-.68-1.51-.68-2.49,0-.63.08-1.28.24-1.95-.19.12-.38.17-.59.17-.37,0-.66-.08-.87-.24-.21-.16-.45-.24-.73-.24-.14,0-.3.05-.47.14s-.35.3-.54.63ZM305.13,17.01c.05-.25.08-.49.1-.71s.04-.44.04-.64c0-.6-.11-1.1-.33-1.48-.22-.38-.56-.57-1.03-.57-.72,0-1.47.43-2.24,1.29-.78.86-1.46,1.97-2.04,3.34-.3.72-.53,1.4-.7,2.04s-.24,1.22-.24,1.76c0,.58.1,1.04.31,1.39.21.35.53.52.97.52.53,0,1.07-.23,1.6-.68.53-.45,1.02-.97,1.46-1.55.44-.58.75-1.08.94-1.5-.37-.67-.59-1.18-.64-1.51-.06-.34-.09-.59-.09-.75,0-.44.12-.78.35-1.01.23-.23.46-.35.7-.35.33,0,.6.14.83.42Z"/>
      <path class="cls-2" d="M327.71,1.18c.05-.07.13-.1.24-.1.19,0,.27.04.26.12-.01.08-.06.2-.16.37-.19.3-.45.64-.78,1.03-.34.38-.75.71-1.24.99s-1.08.42-1.77.42c-.58,0-1.19-.12-1.83-.37-.64-.24-1.28-.52-1.91-.82-.64-.3-1.24-.57-1.79-.82s-1.04-.37-1.46-.37c-.67,0-1.21.21-1.6.64-.39.43-.59.98-.59,1.65,0,.63.16,1.37.47,2.24.31.87.67,1.81,1.06,2.82.39,1.01.75,2.04,1.06,3.1.31,1.06.47,2.08.47,3.08,0,1.09-.21,2.2-.63,3.32-.42,1.12-.98,2.16-1.69,3.1-.71.94-1.5,1.69-2.37,2.26-.87.57-1.76.85-2.66.85s-1.57-.3-1.98-.89c-.42-.59-.63-1.32-.63-2.17,0-1.04.24-2.13.73-3.27.44-1.07,1.03-2.04,1.76-2.92.73-.88,1.52-1.59,2.38-2.14s1.71-.82,2.54-.82c.19,0,.39.02.61.05.22.04.46.11.71.23-.32-1.11-.71-2.26-1.15-3.43-.44-1.17-.83-2.27-1.18-3.31-.35-1.03-.52-1.92-.52-2.66,0-.95.33-1.75.97-2.4.65-.65,1.58-.97,2.78-.97.67,0,1.33.12,1.97.37.64.24,1.26.52,1.88.83.61.31,1.22.59,1.83.83.6.24,1.21.37,1.81.37s1.12-.11,1.5-.33c.37-.22.67-.52.9-.89ZM316.86,15.41c0-.21-.02-.46-.05-.75-.04-.29-.13-.54-.28-.75-.15-.21-.39-.31-.71-.31-.56,0-1.25.39-2.09,1.18-.83.79-1.62,1.94-2.37,3.44-.37.79-.67,1.55-.89,2.28s-.33,1.36-.33,1.9c0,.46.09.83.28,1.11.19.28.5.42.94.42.58,0,1.19-.24,1.83-.71.64-.48,1.24-1.12,1.79-1.93s1.01-1.73,1.36-2.75c.35-1.02.52-2.06.52-3.13Z"/>
      <path class="cls-2" d="M321.24,23.9c.56,0,1.23-.45,2.02-1.36.65-.76,1.29-1.68,1.91-2.75.63-1.07,1.22-2.17,1.79-3.3s1.07-2.16,1.51-3.06c.25-.51.71-.77,1.36-.77h1.91c-.51.42-1.03,1.04-1.55,1.88-.52.83-1.1,1.9-1.72,3.2-.16.35-.37.79-.63,1.32-.25.53-.48,1.1-.68,1.7-.2.6-.3,1.21-.3,1.81,0,.81.29,1.22.87,1.22.53,0,1.07-.27,1.6-.82s1.06-1.28,1.57-2.21c.3,0,.45.09.45.28-.51.95-1.11,1.8-1.79,2.54-.68.74-1.47,1.11-2.35,1.11-.58,0-1.06-.21-1.43-.64-.37-.43-.56-1.04-.56-1.83,0-.63.12-1.3.35-2.02-.39.7-.85,1.39-1.36,2.09-.51.7-1.06,1.27-1.64,1.72s-1.16.68-1.74.68c-.26,0-.56-.06-.92-.17-.36-.12-.67-.33-.94-.64-.27-.31-.4-.78-.4-1.41s.13-1.31.38-2.12c.25-.81.57-1.66.96-2.54.38-.88.78-1.71,1.18-2.49.41-.78.75-1.41,1.03-1.9.28-.51.72-.77,1.32-.77h2.16c-.26.21-.51.43-.77.66-.26.23-.54.58-.85,1.04s-.71,1.15-1.2,2.05c-.21.37-.44.85-.7,1.44-.25.59-.51,1.2-.76,1.83-.26.63-.46,1.21-.63,1.76s-.24.98-.24,1.3c0,.77.25,1.15.77,1.15Z"/>
      <path class="cls-2" d="M331.64,23.1c0,.23.05.45.16.64.1.2.28.3.54.3.46,0,.94-.25,1.43-.75.49-.5.99-1.15,1.51-1.95.52-.8,1.04-1.63,1.55-2.49.81-1.37,1.53-2.5,2.14-3.41s1.19-1.58,1.72-2.02c.35-.3.65-.49.9-.57.25-.08.51-.12.77-.12h.24c.95,0,1.22.44.8,1.32l-1.25,2.61c-.21.42-.46.93-.75,1.55-.29.62-.57,1.24-.85,1.88s-.5,1.24-.66,1.81c-.16.57-.22,1.03-.17,1.37.05.35.25.52.63.52.3,0,.67-.26,1.1-.78.43-.52.89-1.19,1.39-2,.5-.81,1.01-1.67,1.53-2.57.52-.91,1.04-1.76,1.57-2.58.52-.81,1.01-1.46,1.48-1.95.12-.12.37-.34.77-.68.39-.34.78-.5,1.15-.5h.24c.42,0,.71.1.87.3s.13.54-.1,1.03l-1.22,2.61c-.21.42-.46.93-.75,1.55-.29.62-.57,1.24-.83,1.88s-.48,1.24-.63,1.81c-.15.57-.2,1.03-.14,1.37.06.35.28.52.68.52.58,0,1.15-.3,1.72-.9.57-.6,1.11-1.35,1.62-2.24.51-.89.96-1.78,1.36-2.66.09,0,.19.03.28.09s.14.13.14.23c-.42,1.04-.9,2.05-1.44,3.03-.54.97-1.17,1.77-1.86,2.4-.7.63-1.5.94-2.4.94-.77,0-1.29-.23-1.57-.7s-.37-1.08-.26-1.86c.1-.78.34-1.65.7-2.61.36-.96.79-1.94,1.3-2.94s1.03-1.94,1.57-2.82c.09-.16.09-.24,0-.24-.07,0-.22.13-.45.38s-.37.41-.42.45c-.6.67-1.17,1.46-1.69,2.35s-1.03,1.8-1.53,2.73c-.5.93-1,1.79-1.51,2.59-.51.8-1.04,1.44-1.6,1.93-.56.49-1.17.73-1.84.73-.74,0-1.21-.31-1.41-.92-.2-.61-.17-1.44.07-2.49.24-1.04.67-2.21,1.27-3.51.6-1.3,1.32-2.63,2.16-4,.09-.16.08-.24-.03-.24s-.36.19-.73.56c-.26.26-.5.54-.75.87-.24.32-.56.81-.96,1.44s-.95,1.58-1.67,2.83c-.53.93-1.08,1.82-1.65,2.68-.57.86-1.17,1.56-1.79,2.11-.63.54-1.31.82-2.05.82-.56,0-1.06-.17-1.5-.5-.44-.34-.66-.83-.66-1.48,0-.39.09-.82.26-1.29.17-.46.43-.86.77-1.18.34-.32.75-.46,1.23-.42.33.02.61.15.87.38-.42.39-.74.86-.97,1.39-.23.53-.35,1-.35,1.39Z"/>
      <path class="cls-2" d="M359.48,20.35c-.23.49-.5.95-.8,1.39.09.02.2.04.31.04.56,0,1.15-.28,1.79-.85.64-.57,1.27-1.54,1.9-2.91.37-.81.75-1.62,1.13-2.42.38-.8.72-1.51,1.03-2.14.14-.28.32-.47.56-.57.23-.1.51-.16.83-.16h1.88c-.4.3-.73.6-.99.89s-.56.68-.87,1.18c-.31.5-.74,1.23-1.27,2.21-.21.39-.46.95-.75,1.65-.29.71-.55,1.44-.78,2.21-.23.77-.35,1.44-.35,2.02,0,.35.05.64.16.87.1.23.31.35.61.35.56,0,1.14-.31,1.74-.92.6-.61,1.16-1.35,1.67-2.21.32,0,.49.09.49.28-.58,1-1.26,1.87-2.05,2.61-.79.74-1.65,1.11-2.57,1.11-.46,0-.9-.18-1.32-.54-.42-.36-.63-.92-.63-1.69,0-.46.12-1.08.35-1.84-.42.56-.85.94-1.29,1.15-.44.21-.92.31-1.43.31-.21,0-.39-.01-.56-.03-.63.74-1.35,1.36-2.16,1.86-.81.5-1.71.75-2.68.75s-1.63-.27-2.04-.8c-.41-.53-.61-1.19-.61-1.98,0-.46.06-.92.17-1.36.12-.44.25-.88.42-1.32.23-.56.56-1.23.97-2.02.42-.79.88-1.57,1.39-2.33.51-.76,1.02-1.4,1.53-1.91s.96-.77,1.36-.77c.19,0,.38.03.59.09.21.06.43.09.66.09.09,0,.17-.01.24-.03-.14.07-.36.28-.66.64s-.64.79-1.03,1.3c-.38.51-.77,1.03-1.17,1.57s-.74,1.01-1.04,1.43c.39-.42.92-.84,1.57-1.27.65-.43,1.33-.64,2.05-.64.79,0,1.37.22,1.74.66s.56.96.56,1.57c0,.42-.06.85-.19,1.3-.13.45-.29.85-.47,1.2ZM356.17,20.28c0-.33.1-.58.31-.77s.44-.28.7-.28.45.07.57.21c.13.14.19.3.19.49v.17c.14-.39.23-.75.28-1.08.05-.32.07-.59.07-.8,0-.46-.09-.85-.28-1.17-.19-.31-.51-.47-.97-.47-.58,0-1.22.33-1.91.97-.7.65-1.32,1.48-1.88,2.5-.35.65-.6,1.22-.75,1.71-.15.49-.23.95-.23,1.39,0,.37.09.67.28.9s.52.35,1.01.35c.44,0,.99-.23,1.65-.7.66-.46,1.27-1.1,1.83-1.91-.58-.42-.87-.93-.87-1.53Z"/>
      <path class="cls-2" d="M368.21,23.1c0,.23.05.45.16.64.1.2.28.3.54.3.46,0,.94-.25,1.43-.75.49-.5.99-1.15,1.51-1.95.52-.8,1.04-1.63,1.55-2.49.81-1.37,1.53-2.5,2.14-3.41s1.19-1.58,1.72-2.02c.35-.3.65-.49.9-.57.25-.08.51-.12.77-.12h.24c.95,0,1.22.44.8,1.32l-1.25,2.61c-.21.42-.46.93-.75,1.55-.29.62-.57,1.24-.85,1.88s-.5,1.24-.66,1.81c-.16.57-.22,1.03-.17,1.37.05.35.25.52.63.52.3,0,.67-.26,1.1-.78.43-.52.89-1.19,1.39-2,.5-.81,1.01-1.67,1.53-2.57.52-.91,1.04-1.76,1.57-2.58.52-.81,1.01-1.46,1.48-1.95.12-.12.37-.34.77-.68.39-.34.78-.5,1.15-.5h.24c.42,0,.71.1.87.3s.13.54-.1,1.03l-1.22,2.61c-.21.42-.46.93-.75,1.55-.29.62-.57,1.24-.83,1.88s-.48,1.24-.63,1.81c-.15.57-.2,1.03-.14,1.37.06.35.28.52.68.52.58,0,1.15-.3,1.72-.9.57-.6,1.11-1.35,1.62-2.24.51-.89.96-1.78,1.36-2.66.09,0,.19.03.28.09s.14.13.14.23c-.42,1.04-.9,2.05-1.44,3.03-.54.97-1.17,1.77-1.86,2.4-.7.63-1.5.94-2.4.94-.77,0-1.29-.23-1.57-.7s-.37-1.08-.26-1.86c.1-.78.34-1.65.7-2.61.36-.96.79-1.94,1.3-2.94s1.03-1.94,1.57-2.82c.09-.16.09-.24,0-.24-.07,0-.22.13-.45.38s-.37.41-.42.45c-.6.67-1.17,1.46-1.69,2.35s-1.03,1.8-1.53,2.73c-.5.93-1,1.79-1.51,2.59-.51.8-1.04,1.44-1.6,1.93-.56.49-1.17.73-1.84.73-.74,0-1.21-.31-1.41-.92-.2-.61-.17-1.44.07-2.49.24-1.04.67-2.21,1.27-3.51.6-1.3,1.32-2.63,2.16-4,.09-.16.08-.24-.03-.24s-.36.19-.73.56c-.26.26-.5.54-.75.87-.24.32-.56.81-.96,1.44s-.95,1.58-1.67,2.83c-.53.93-1.08,1.82-1.65,2.68-.57.86-1.17,1.56-1.79,2.11-.63.54-1.31.82-2.05.82-.56,0-1.06-.17-1.5-.5-.44-.34-.66-.83-.66-1.48,0-.39.09-.82.26-1.29.17-.46.43-.86.77-1.18.34-.32.75-.46,1.23-.42.33.02.61.15.87.38-.42.39-.74.86-.97,1.39-.23.53-.35,1-.35,1.39Z"/>
      <path class="cls-2" d="M389.71,24.7c-.26,0-.56-.06-.92-.17-.36-.12-.67-.33-.94-.64-.27-.31-.4-.78-.4-1.41s.2-1.3.59-2.09l1.04-2.09c-.26,0-.38-.1-.38-.31.02-.07.13-.29.31-.66s.41-.81.66-1.32c.25-.51.5-1,.75-1.48.24-.48.44-.84.57-1.1.28-.51.72-.77,1.32-.77h2.16c-.4.3-.75.63-1.06.99-.31.36-.7,1.01-1.17,1.97-.33.65-.61,1.22-.85,1.72-.24.5-.49,1-.73,1.51-.24.51-.45.94-.61,1.29-.3.65-.5,1.17-.59,1.55-.09.38-.14.74-.14,1.06,0,.77.25,1.15.77,1.15.56,0,1.23-.45,2.02-1.36.65-.76,1.29-1.68,1.91-2.75.63-1.07,1.22-2.17,1.79-3.3s1.07-2.16,1.51-3.06c.25-.51.71-.77,1.36-.77h1.91c-.51.42-1.03,1.04-1.55,1.88-.52.83-1.1,1.9-1.72,3.2-.16.35-.37.79-.63,1.32-.25.53-.48,1.1-.68,1.7-.2.6-.3,1.21-.3,1.81,0,.81.29,1.22.87,1.22.79,0,1.55-.54,2.3-1.64.74-1.09,1.47-2.48,2.19-4.17.19,0,.3.01.33.04.03.02.06.12.09.28-.26.63-.56,1.3-.92,2.04-.36.73-.77,1.43-1.22,2.1-.45.67-.95,1.22-1.5,1.64-.54.42-1.14.63-1.79.63-.58,0-1.06-.21-1.43-.64-.37-.43-.56-1.04-.56-1.83,0-.63.12-1.3.35-2.02-.39.7-.85,1.39-1.36,2.09-.51.7-1.06,1.27-1.64,1.72s-1.16.68-1.74.68Z"/>
      <path class="cls-1" d="M416.91,18.73c.5.57.75,1.32.75,2.24,0,1.2-.42,2.12-1.27,2.76s-2.09.97-3.74.97h-6.12v-13.81h5.74c1.47,0,2.62.3,3.45.91.83.6,1.24,1.48,1.24,2.62,0,.78-.2,1.43-.59,1.96-.39.53-.95.93-1.66,1.19.96.2,1.69.58,2.19,1.15ZM407.97,17.14h4.22c1.07,0,1.88-.22,2.46-.65.57-.43.86-1.07.86-1.89s-.29-1.46-.86-1.89c-.57-.43-1.39-.65-2.46-.65h-4.22v5.09ZM416.21,20.87c0-1.74-1.19-2.6-3.57-2.6h-4.68v5.27h4.68c2.38,0,3.57-.89,3.57-2.66Z"/>
      <path class="cls-1" d="M425.88,18.37h-3.16v6.33h-1.42v-13.81h1.42v6.2h3.16l4.68-6.2h1.58l-5.13,6.71,5.43,7.1h-1.68l-4.87-6.33Z"/>
      <path class="cls-1" d="M445.55,10.89l-6.27,11.62c-.45.83-.97,1.44-1.57,1.84-.6.4-1.25.6-1.96.6-.53,0-1.09-.13-1.7-.38l.42-1.18c.47.18.91.28,1.3.28.91,0,1.65-.49,2.23-1.48l.39-.67-5.6-10.63h1.56l4.81,9.35,4.93-9.35h1.46Z"/>
      <path class="cls-1" d="M450.04,23.91c-1.1-.61-1.96-1.44-2.58-2.52-.62-1.07-.94-2.27-.94-3.6s.31-2.53.94-3.6c.62-1.07,1.49-1.91,2.59-2.52,1.11-.6,2.34-.91,3.71-.91,1.03,0,1.97.17,2.84.51.87.34,1.6.84,2.21,1.5l-.93.93c-1.08-1.09-2.44-1.64-4.08-1.64-1.09,0-2.08.25-2.98.75-.89.5-1.59,1.18-2.1,2.05-.51.87-.76,1.84-.76,2.92s.25,2.05.76,2.92c.51.87,1.21,1.55,2.1,2.05s1.89.75,2.98.75c1.66,0,3.02-.55,4.08-1.66l.93.93c-.61.66-1.34,1.16-2.22,1.51s-1.83.52-2.85.52c-1.37,0-2.6-.3-3.7-.91Z"/>
      <path class="cls-1" d="M470.32,21.01h-7.69l-1.66,3.69h-1.52l6.31-13.81h1.44l6.31,13.81h-1.54l-1.66-3.69ZM469.78,19.83l-3.31-7.42-3.32,7.42h6.63Z"/>
      <path class="cls-1" d="M490.5,10.89v13.81h-1.4v-11.05l-5.43,9.29h-.69l-5.43-9.23v10.99h-1.4v-13.81h1.2l6,10.24,5.94-10.24h1.2Z"/>
      <path class="cls-1" d="M495.16,10.89h1.44v11.44l8.84-11.44h1.32v13.81h-1.44v-11.42l-8.84,11.42h-1.32v-13.81Z"/>
    </g>
    <g>
      <path class="cls-1" d="M0,10.89h1.44v11.44l8.84-11.44h1.32v13.81h-1.44v-11.42L1.32,24.7H0v-13.81Z"/>
      <path class="cls-2" d="M26.37,19.2c-.6,1.02-1.18,1.96-1.74,2.82-.56.86-1.13,1.54-1.72,2.04-.59.5-1.26.75-2,.75-.56,0-1.06-.17-1.5-.5-.44-.34-.66-.83-.66-1.48,0-.39.09-.82.26-1.29.17-.46.43-.86.77-1.18.34-.32.75-.46,1.23-.42.33.02.61.15.87.38-.42.39-.74.86-.97,1.39-.23.53-.35,1-.35,1.39,0,.23.05.45.16.64.1.2.29.3.57.3.44,0,.9-.25,1.38-.75.47-.5.97-1.15,1.5-1.95.52-.8,1.04-1.63,1.55-2.49.67-1.09,1.34-2.1,2-3.03s1.28-1.65,1.86-2.16c.74-.63,1.45-.94,2.12-.94h.14c.93,0,1.18.44.76,1.32l-1.22,2.61c-.21.42-.46.93-.75,1.55-.29.62-.57,1.24-.83,1.88-.27.64-.48,1.24-.63,1.81-.15.57-.2,1.03-.14,1.37.06.35.28.52.68.52.58,0,1.15-.3,1.72-.9.57-.6,1.11-1.35,1.62-2.24.51-.89.96-1.78,1.36-2.66.09,0,.19.03.28.09.09.06.14.13.14.23-.42,1.04-.9,2.05-1.44,3.03-.54.97-1.17,1.77-1.88,2.4-.71.63-1.53.94-2.45.94s-1.47-.32-1.69-.96c-.22-.64-.2-1.48.07-2.52s.69-2.19,1.27-3.43c.58-1.24,1.22-2.45,1.91-3.64.25-.42.32-.63.21-.63-.09,0-.25.09-.47.26-.22.17-.42.35-.61.54-.44.42-.92,1-1.43,1.74-.51.74-1.16,1.8-1.95,3.17Z"/>
      <path class="cls-2" d="M35.59,19.69c-.09.21-.24.53-.43.96-.2.43-.41.89-.63,1.39-.22.5-.42.95-.59,1.34-.17.39-.3.66-.37.8-.14.28-.28.45-.43.5-.15.06-.45.09-.89.09h-.66c-.16,0-.34.06-.52.17.37-.74.77-1.55,1.2-2.43s.83-1.72,1.2-2.5.68-1.44.92-1.95.48-.98.7-1.41c.22-.43.47-.9.75-1.41.49-.9.89-1.5,1.2-1.79.31-.29.69-.43,1.13-.43.19,0,.36.01.52.04.16.02.29.05.38.07.05,0,.12.01.23.04s.27.02.5,0c-.3.16-.67.54-1.11,1.15-.44.6-.89,1.29-1.34,2.07s-.86,1.53-1.24,2.24c.44-.44.91-.66,1.39-.66.37,0,.67.06.91.19.23.13.44.19.63.19h.04c.37-1.04.89-2.01,1.57-2.91.67-.89,1.41-1.61,2.21-2.14.8-.53,1.61-.8,2.42-.8.88,0,1.55.33,2.02.97.46.65.7,1.46.7,2.44,0,.7-.12,1.44-.35,2.23-.23.79-.54,1.54-.94,2.26.33.3.75.45,1.29.45.63,0,1.18-.21,1.67-.63.49-.42.95-1.16,1.39-2.23.28,0,.42.1.42.31-.37.93-.85,1.68-1.44,2.24-.59.57-1.35.84-2.28.82-.56-.02-1-.17-1.32-.45-.65,1.07-1.42,1.97-2.31,2.7s-1.81,1.1-2.77,1.1-1.65-.34-2.1-1.03c-.45-.68-.68-1.51-.68-2.49,0-.63.08-1.28.24-1.95-.19.12-.38.17-.59.17-.37,0-.66-.08-.87-.24-.21-.16-.45-.24-.73-.24-.14,0-.3.05-.47.14s-.35.3-.54.63ZM46.96,17.01c.05-.25.08-.49.1-.71s.04-.44.04-.64c0-.6-.11-1.1-.33-1.48-.22-.38-.56-.57-1.03-.57-.72,0-1.47.43-2.24,1.29-.78.86-1.46,1.97-2.04,3.34-.3.72-.53,1.4-.7,2.04s-.24,1.22-.24,1.76c0,.58.1,1.04.31,1.39.21.35.53.52.97.52.53,0,1.07-.23,1.6-.68.53-.45,1.02-.97,1.46-1.55.44-.58.75-1.08.94-1.5-.37-.67-.59-1.18-.64-1.51-.06-.34-.09-.59-.09-.75,0-.44.12-.78.35-1.01.23-.23.46-.35.7-.35.33,0,.6.14.83.42Z"/>
      <path class="cls-2" d="M69.54,1.18c.05-.07.13-.1.24-.1.19,0,.27.04.26.12-.01.08-.06.2-.16.37-.19.3-.45.64-.78,1.03-.34.38-.75.71-1.24.99s-1.08.42-1.77.42c-.58,0-1.19-.12-1.83-.37-.64-.24-1.28-.52-1.91-.82-.64-.3-1.24-.57-1.79-.82s-1.04-.37-1.46-.37c-.67,0-1.21.21-1.6.64-.39.43-.59.98-.59,1.65,0,.63.16,1.37.47,2.24.31.87.67,1.81,1.06,2.82.39,1.01.75,2.04,1.06,3.1.31,1.06.47,2.08.47,3.08,0,1.09-.21,2.2-.63,3.32-.42,1.12-.98,2.16-1.69,3.1-.71.94-1.5,1.69-2.37,2.26-.87.57-1.76.85-2.66.85s-1.57-.3-1.98-.89c-.42-.59-.63-1.32-.63-2.17,0-1.04.24-2.13.73-3.27.44-1.07,1.03-2.04,1.76-2.92.73-.88,1.52-1.59,2.38-2.14s1.71-.82,2.54-.82c.19,0,.39.02.61.05.22.04.46.11.71.23-.32-1.11-.71-2.26-1.15-3.43-.44-1.17-.83-2.27-1.18-3.31-.35-1.03-.52-1.92-.52-2.66,0-.95.33-1.75.97-2.4.65-.65,1.58-.97,2.78-.97.67,0,1.33.12,1.97.37.64.24,1.26.52,1.88.83.61.31,1.22.59,1.83.83.6.24,1.21.37,1.81.37s1.12-.11,1.5-.33c.37-.22.67-.52.9-.89ZM58.69,15.41c0-.21-.02-.46-.05-.75-.04-.29-.13-.54-.28-.75-.15-.21-.39-.31-.71-.31-.56,0-1.25.39-2.09,1.18-.83.79-1.62,1.94-2.37,3.44-.37.79-.67,1.55-.89,2.28s-.33,1.36-.33,1.9c0,.46.09.83.28,1.11.19.28.5.42.94.42.58,0,1.19-.24,1.83-.71.64-.48,1.24-1.12,1.79-1.93s1.01-1.73,1.36-2.75c.35-1.02.52-2.06.52-3.13Z"/>
      <path class="cls-2" d="M63.07,23.9c.56,0,1.23-.45,2.02-1.36.65-.76,1.29-1.68,1.91-2.75.63-1.07,1.22-2.17,1.79-3.3s1.07-2.16,1.51-3.06c.25-.51.71-.77,1.36-.77h1.91c-.51.42-1.03,1.04-1.55,1.88-.52.83-1.1,1.9-1.72,3.2-.16.35-.37.79-.63,1.32-.25.53-.48,1.1-.68,1.7-.2.6-.3,1.21-.3,1.81,0,.81.29,1.22.87,1.22.53,0,1.07-.27,1.6-.82s1.06-1.28,1.57-2.21c.3,0,.45.09.45.28-.51.95-1.11,1.8-1.79,2.54-.68.74-1.47,1.11-2.35,1.11-.58,0-1.06-.21-1.43-.64-.37-.43-.56-1.04-.56-1.83,0-.63.12-1.3.35-2.02-.39.7-.85,1.39-1.36,2.09-.51.7-1.06,1.27-1.64,1.72s-1.16.68-1.74.68c-.26,0-.56-.06-.92-.17-.36-.12-.67-.33-.94-.64-.27-.31-.4-.78-.4-1.41s.13-1.31.38-2.12c.25-.81.57-1.66.96-2.54.38-.88.78-1.71,1.18-2.49.41-.78.75-1.41,1.03-1.9.28-.51.72-.77,1.32-.77h2.16c-.26.21-.51.43-.77.66-.26.23-.54.58-.85,1.04s-.71,1.15-1.2,2.05c-.21.37-.44.85-.7,1.44-.25.59-.51,1.2-.76,1.83-.26.63-.46,1.21-.63,1.76s-.24.98-.24,1.3c0,.77.25,1.15.77,1.15Z"/>
      <path class="cls-2" d="M73.47,23.1c0,.23.05.45.16.64.1.2.28.3.54.3.46,0,.94-.25,1.43-.75.49-.5.99-1.15,1.51-1.95.52-.8,1.04-1.63,1.55-2.49.81-1.37,1.53-2.5,2.14-3.41s1.19-1.58,1.72-2.02c.35-.3.65-.49.9-.57.25-.08.51-.12.77-.12h.24c.95,0,1.22.44.8,1.32l-1.25,2.61c-.21.42-.46.93-.75,1.55-.29.62-.57,1.24-.85,1.88s-.5,1.24-.66,1.81c-.16.57-.22,1.03-.17,1.37.05.35.25.52.63.52.3,0,.67-.26,1.1-.78.43-.52.89-1.19,1.39-2,.5-.81,1.01-1.67,1.53-2.57.52-.91,1.04-1.76,1.57-2.58.52-.81,1.01-1.46,1.48-1.95.12-.12.37-.34.77-.68.39-.34.78-.5,1.15-.5h.24c.42,0,.71.1.87.3s.13.54-.1,1.03l-1.22,2.61c-.21.42-.46.93-.75,1.55-.29.62-.57,1.24-.83,1.88s-.48,1.24-.63,1.81c-.15.57-.2,1.03-.14,1.37.06.35.28.52.68.52.58,0,1.15-.3,1.72-.9.57-.6,1.11-1.35,1.62-2.24.51-.89.96-1.78,1.36-2.66.09,0,.19.03.28.09s.14.13.14.23c-.42,1.04-.9,2.05-1.44,3.03-.54.97-1.17,1.77-1.86,2.4-.7.63-1.5.94-2.4.94-.77,0-1.29-.23-1.57-.7s-.37-1.08-.26-1.86c.1-.78.34-1.65.7-2.61.36-.96.79-1.94,1.3-2.94s1.03-1.94,1.57-2.82c.09-.16.09-.24,0-.24-.07,0-.22.13-.45.38s-.37.41-.42.45c-.6.67-1.17,1.46-1.69,2.35s-1.03,1.8-1.53,2.73c-.5.93-1,1.79-1.51,2.59-.51.8-1.04,1.44-1.6,1.93-.56.49-1.17.73-1.84.73-.74,0-1.21-.31-1.41-.92-.2-.61-.17-1.44.07-2.49.24-1.04.67-2.21,1.27-3.51.6-1.3,1.32-2.63,2.16-4,.09-.16.08-.24-.03-.24s-.36.19-.73.56c-.26.26-.5.54-.75.87-.24.32-.56.81-.96,1.44s-.95,1.58-1.67,2.83c-.53.93-1.08,1.82-1.65,2.68-.57.86-1.17,1.56-1.79,2.11-.63.54-1.31.82-2.05.82-.56,0-1.06-.17-1.5-.5-.44-.34-.66-.83-.66-1.48,0-.39.09-.82.26-1.29.17-.46.43-.86.77-1.18.34-.32.75-.46,1.23-.42.33.02.61.15.87.38-.42.39-.74.86-.97,1.39-.23.53-.35,1-.35,1.39Z"/>
      <path class="cls-2" d="M101.31,20.35c-.23.49-.5.95-.8,1.39.09.02.2.04.31.04.56,0,1.15-.28,1.79-.85.64-.57,1.27-1.54,1.9-2.91.37-.81.75-1.62,1.13-2.42.38-.8.72-1.51,1.03-2.14.14-.28.32-.47.56-.57.23-.1.51-.16.83-.16h1.88c-.4.3-.73.6-.99.89s-.56.68-.87,1.18c-.31.5-.74,1.23-1.27,2.21-.21.39-.46.95-.75,1.65-.29.71-.55,1.44-.78,2.21-.23.77-.35,1.44-.35,2.02,0,.35.05.64.16.87.1.23.31.35.61.35.56,0,1.14-.31,1.74-.92.6-.61,1.16-1.35,1.67-2.21.32,0,.49.09.49.28-.58,1-1.26,1.87-2.05,2.61-.79.74-1.65,1.11-2.57,1.11-.46,0-.9-.18-1.32-.54-.42-.36-.63-.92-.63-1.69,0-.46.12-1.08.35-1.84-.42.56-.85.94-1.29,1.15-.44.21-.92.31-1.43.31-.21,0-.39-.01-.56-.03-.63.74-1.35,1.36-2.16,1.86-.81.5-1.71.75-2.68.75s-1.63-.27-2.04-.8c-.41-.53-.61-1.19-.61-1.98,0-.46.06-.92.17-1.36.12-.44.25-.88.42-1.32.23-.56.56-1.23.97-2.02.42-.79.88-1.57,1.39-2.33.51-.76,1.02-1.4,1.53-1.91s.96-.77,1.36-.77c.19,0,.38.03.59.09.21.06.43.09.66.09.09,0,.17-.01.24-.03-.14.07-.36.28-.66.64s-.64.79-1.03,1.3c-.38.51-.77,1.03-1.17,1.57s-.74,1.01-1.04,1.43c.39-.42.92-.84,1.57-1.27.65-.43,1.33-.64,2.05-.64.79,0,1.37.22,1.74.66s.56.96.56,1.57c0,.42-.06.85-.19,1.3-.13.45-.29.85-.47,1.2ZM98,20.28c0-.33.1-.58.31-.77s.44-.28.7-.28.45.07.57.21c.13.14.19.3.19.49v.17c.14-.39.23-.75.28-1.08.05-.32.07-.59.07-.8,0-.46-.09-.85-.28-1.17-.19-.31-.51-.47-.97-.47-.58,0-1.22.33-1.91.97-.7.65-1.32,1.48-1.88,2.5-.35.65-.6,1.22-.75,1.71-.15.49-.23.95-.23,1.39,0,.37.09.67.28.9s.52.35,1.01.35c.44,0,.99-.23,1.65-.7.66-.46,1.27-1.1,1.83-1.91-.58-.42-.87-.93-.87-1.53Z"/>
      <path class="cls-2" d="M110.04,23.1c0,.23.05.45.16.64.1.2.28.3.54.3.46,0,.94-.25,1.43-.75.49-.5.99-1.15,1.51-1.95.52-.8,1.04-1.63,1.55-2.49.81-1.37,1.53-2.5,2.14-3.41s1.19-1.58,1.72-2.02c.35-.3.65-.49.9-.57.25-.08.51-.12.77-.12h.24c.95,0,1.22.44.8,1.32l-1.25,2.61c-.21.42-.46.93-.75,1.55-.29.62-.57,1.24-.85,1.88s-.5,1.24-.66,1.81c-.16.57-.22,1.03-.17,1.37.05.35.25.52.63.52.3,0,.67-.26,1.1-.78.43-.52.89-1.19,1.39-2,.5-.81,1.01-1.67,1.53-2.57.52-.91,1.04-1.76,1.57-2.58.52-.81,1.01-1.46,1.48-1.95.12-.12.37-.34.77-.68.39-.34.78-.5,1.15-.5h.24c.42,0,.71.1.87.3s.13.54-.1,1.03l-1.22,2.61c-.21.42-.46.93-.75,1.55-.29.62-.57,1.24-.83,1.88s-.48,1.24-.63,1.81c-.15.57-.2,1.03-.14,1.37.06.35.28.52.68.52.58,0,1.15-.3,1.72-.9.57-.6,1.11-1.35,1.62-2.24.51-.89.96-1.78,1.36-2.66.09,0,.19.03.28.09s.14.13.14.23c-.42,1.04-.9,2.05-1.44,3.03-.54.97-1.17,1.77-1.86,2.4-.7.63-1.5.94-2.4.94-.77,0-1.29-.23-1.57-.7s-.37-1.08-.26-1.86c.1-.78.34-1.65.7-2.61.36-.96.79-1.94,1.3-2.94s1.03-1.94,1.57-2.82c.09-.16.09-.24,0-.24-.07,0-.22.13-.45.38s-.37.41-.42.45c-.6.67-1.17,1.46-1.69,2.35s-1.03,1.8-1.53,2.73c-.5.93-1,1.79-1.51,2.59-.51.8-1.04,1.44-1.6,1.93-.56.49-1.17.73-1.84.73-.74,0-1.21-.31-1.41-.92-.2-.61-.17-1.44.07-2.49.24-1.04.67-2.21,1.27-3.51.6-1.3,1.32-2.63,2.16-4,.09-.16.08-.24-.03-.24s-.36.19-.73.56c-.26.26-.5.54-.75.87-.24.32-.56.81-.96,1.44s-.95,1.58-1.67,2.83c-.53.93-1.08,1.82-1.65,2.68-.57.86-1.17,1.56-1.79,2.11-.63.54-1.31.82-2.05.82-.56,0-1.06-.17-1.5-.5-.44-.34-.66-.83-.66-1.48,0-.39.09-.82.26-1.29.17-.46.43-.86.77-1.18.34-.32.75-.46,1.23-.42.33.02.61.15.87.38-.42.39-.74.86-.97,1.39-.23.53-.35,1-.35,1.39Z"/>
      <path class="cls-2" d="M131.54,24.7c-.26,0-.56-.06-.92-.17-.36-.12-.67-.33-.94-.64-.27-.31-.4-.78-.4-1.41s.2-1.3.59-2.09l1.04-2.09c-.26,0-.38-.1-.38-.31.02-.07.13-.29.31-.66s.41-.81.66-1.32c.25-.51.5-1,.75-1.48.24-.48.44-.84.57-1.1.28-.51.72-.77,1.32-.77h2.16c-.4.3-.75.63-1.06.99-.31.36-.7,1.01-1.17,1.97-.33.65-.61,1.22-.85,1.72-.24.5-.49,1-.73,1.51-.24.51-.45.94-.61,1.29-.3.65-.5,1.17-.59,1.55-.09.38-.14.74-.14,1.06,0,.77.25,1.15.77,1.15.56,0,1.23-.45,2.02-1.36.65-.76,1.29-1.68,1.91-2.75.63-1.07,1.22-2.17,1.79-3.3s1.07-2.16,1.51-3.06c.25-.51.71-.77,1.36-.77h1.91c-.51.42-1.03,1.04-1.55,1.88-.52.83-1.1,1.9-1.72,3.2-.16.35-.37.79-.63,1.32-.25.53-.48,1.1-.68,1.7-.2.6-.3,1.21-.3,1.81,0,.81.29,1.22.87,1.22.79,0,1.55-.54,2.3-1.64.74-1.09,1.47-2.48,2.19-4.17.19,0,.3.01.33.04.03.02.06.12.09.28-.26.63-.56,1.3-.92,2.04-.36.73-.77,1.43-1.22,2.1-.45.67-.95,1.22-1.5,1.64-.54.42-1.14.63-1.79.63-.58,0-1.06-.21-1.43-.64-.37-.43-.56-1.04-.56-1.83,0-.63.12-1.3.35-2.02-.39.7-.85,1.39-1.36,2.09-.51.7-1.06,1.27-1.64,1.72s-1.16.68-1.74.68Z"/>
      <path class="cls-1" d="M158.74,18.73c.5.57.75,1.32.75,2.24,0,1.2-.42,2.12-1.27,2.76s-2.09.97-3.74.97h-6.12v-13.81h5.74c1.47,0,2.62.3,3.45.91.83.6,1.24,1.48,1.24,2.62,0,.78-.2,1.43-.59,1.96-.39.53-.95.93-1.66,1.19.96.2,1.69.58,2.19,1.15ZM149.8,17.14h4.22c1.07,0,1.88-.22,2.46-.65.57-.43.86-1.07.86-1.89s-.29-1.46-.86-1.89c-.57-.43-1.39-.65-2.46-.65h-4.22v5.09ZM158.04,20.87c0-1.74-1.19-2.6-3.57-2.6h-4.68v5.27h4.68c2.38,0,3.57-.89,3.57-2.66Z"/>
      <path class="cls-1" d="M167.71,18.37h-3.16v6.33h-1.42v-13.81h1.42v6.2h3.16l4.68-6.2h1.58l-5.13,6.71,5.43,7.1h-1.68l-4.87-6.33Z"/>
      <path class="cls-1" d="M187.38,10.89l-6.27,11.62c-.45.83-.97,1.44-1.57,1.84-.6.4-1.25.6-1.96.6-.53,0-1.09-.13-1.7-.38l.42-1.18c.47.18.91.28,1.3.28.91,0,1.65-.49,2.23-1.48l.39-.67-5.6-10.63h1.56l4.81,9.35,4.93-9.35h1.46Z"/>
      <path class="cls-1" d="M191.87,23.91c-1.1-.61-1.96-1.44-2.58-2.52-.62-1.07-.94-2.27-.94-3.6s.31-2.53.94-3.6c.62-1.07,1.49-1.91,2.59-2.52,1.11-.6,2.34-.91,3.71-.91,1.03,0,1.97.17,2.84.51.87.34,1.6.84,2.21,1.5l-.93.93c-1.08-1.09-2.44-1.64-4.08-1.64-1.09,0-2.08.25-2.98.75-.89.5-1.59,1.18-2.1,2.05-.51.87-.76,1.84-.76,2.92s.25,2.05.76,2.92c.51.87,1.21,1.55,2.1,2.05s1.89.75,2.98.75c1.66,0,3.02-.55,4.08-1.66l.93.93c-.61.66-1.34,1.16-2.22,1.51s-1.83.52-2.85.52c-1.37,0-2.6-.3-3.7-.91Z"/>
      <path class="cls-1" d="M212.15,21.01h-7.69l-1.66,3.69h-1.52l6.31-13.81h1.44l6.31,13.81h-1.54l-1.66-3.69ZM211.61,19.83l-3.31-7.42-3.32,7.42h6.63Z"/>
      <path class="cls-1" d="M232.33,10.89v13.81h-1.4v-11.05l-5.43,9.29h-.69l-5.43-9.23v10.99h-1.4v-13.81h1.2l6,10.24,5.94-10.24h1.2Z"/>
      <path class="cls-1" d="M236.99,10.89h1.44v11.44l8.84-11.44h1.32v13.81h-1.44v-11.42l-8.84,11.42h-1.32v-13.81Z"/>
    </g>
  </g>
</svg>