<?xml version="1.0" encoding="UTF-8"?>
<svg id="_Слой_2" data-name="Слой 2" xmlns="http://www.w3.org/2000/svg" viewBox="0 0 218.55 89.56">
  <defs>
    <style>
      .cls-1 {
        fill: #fff;
      }
    </style>
  </defs>
  <g id="_Слой_1-2" data-name="Слой 1">
    <g>
      <path class="cls-1" d="M69.19,75.79c.31-3.78.91-8.01,1.81-12.69.9-4.68,1.95-9.49,3.16-14.42s2.54-9.75,4-14.46c1.46-4.71,2.94-9.05,4.46-13.02,1.52-3.97,2.99-7.28,4.42-9.95-3.04,2.48-6.01,5.5-8.93,9.07-2.92,3.57-5.72,7.38-8.42,11.44-2.7,4.06-5.24,8.06-7.63,12-2.39,3.94-4.54,7.55-6.46,10.83-1.92,3.29-3.57,5.95-4.93,8-.99,1.49-2.23,3.35-3.72,5.58-1.49,2.23-3.22,4.59-5.21,7.07-1.98,2.48-4.23,4.8-6.74,6.97-2.51,2.17-5.29,3.94-8.32,5.3-3.04,1.36-6.36,2.05-9.95,2.05s-6.73-.79-9.21-2.37c-2.48-1.58-4.36-3.64-5.63-6.18-1.27-2.54-1.91-5.21-1.91-8s.62-5.75,1.86-8.51c1.24-2.76,2.9-5.32,4.98-7.67,2.08-2.36,4.43-4.34,7.07-5.95,2.63-1.61,5.35-2.73,8.14-3.35.25-.06.46-.09.65-.09.43,0,.65.19.65.56,0,.19-.34.46-1.02.84-5.27,2.85-9.21,6.45-11.81,10.79-2.6,4.34-3.91,8.62-3.91,12.83,0,2.36.53,4.52,1.58,6.51,1.05,1.98,2.51,3.55,4.37,4.7,1.86,1.15,4,1.72,6.42,1.72,3.29,0,6.29-.73,9.02-2.19,2.73-1.46,5.24-3.38,7.53-5.77,2.29-2.39,4.48-4.99,6.56-7.81,2.08-2.82,4.08-5.59,6-8.32,1.24-1.67,2.73-3.95,4.46-6.84,1.74-2.88,3.7-6.11,5.91-9.67,2.2-3.56,4.56-7.24,7.07-11.02,2.51-3.78,5.13-7.44,7.86-10.97,2.73-3.53,5.5-6.73,8.32-9.58,2.82-2.85,5.66-5.12,8.51-6.79.68-.43,1.32-.74,1.91-.93.59-.19,1.44-.28,2.56-.28.74,0,1.02.23.84.7-.19.46-.5,1.01-.93,1.63-1.43,2.17-2.9,5.07-4.42,8.7-1.52,3.63-3.01,7.74-4.46,12.32-1.46,4.59-2.84,9.36-4.14,14.32-1.3,4.96-2.48,9.9-3.53,14.83-1.05,4.93-1.89,9.5-2.51,13.72,5.95-10.73,11.92-20.46,17.9-29.2,5.98-8.74,11.87-16.27,17.67-22.6,5.8-6.32,11.39-11.22,16.79-14.69.87-.93,2.08-1.98,3.63-3.16,1.55-1.18,3.04-1.77,4.46-1.77.87,0,1.6.23,2.19.7.59.46.88,1.04.88,1.72s-.42,1.44-1.26,2.28c-.84.84-2.03,1.5-3.58,2-.43.12-.92.26-1.44.42-.53.16-1.1.29-1.72.42-2.6,3.91-5.47,8.94-8.6,15.11-3.13,6.17-6,13.01-8.6,20.51-1.43,4.15-2.78,8.42-4.04,12.79-1.27,4.37-1.91,8.42-1.91,12.14,0,1.36.25,2.67.74,3.91.5,1.24,1.43,1.86,2.79,1.86,1.61,0,3.38-.88,5.3-2.65s3.81-4.05,5.67-6.83c1.86-2.79,3.41-5.73,4.65-8.84.74,0,1.12.28,1.12.84-1.49,3.41-3.24,6.73-5.25,9.95-2.02,3.22-4.22,5.88-6.6,7.95-2.39,2.08-4.88,3.12-7.49,3.12-2.05,0-3.71-.74-4.98-2.23-1.27-1.49-1.91-3.69-1.91-6.6,0-2.48.42-5.53,1.25-9.16s1.98-7.56,3.44-11.81c1.46-4.25,3.05-8.54,4.79-12.88,2.23-5.39,4.4-10.12,6.51-14.18,2.11-4.06,4.06-7.46,5.86-10.18-5.15,4.09-10.43,9.47-15.86,16.13-5.43,6.67-10.87,14.31-16.32,22.92-5.46,8.62-10.88,17.95-16.28,27.99-.5.93-1.25,1.47-2.28,1.63-1.02.15-1.94-.03-2.74-.56-.81-.53-1.18-1.41-1.12-2.65Z"/>
      <path class="cls-1" d="M146.57,61.84c-.62,1.3-1.33,2.54-2.14,3.72.25.06.53.09.84.09,1.49,0,3.08-.76,4.79-2.28,1.71-1.52,3.39-4.11,5.07-7.77.99-2.17,2-4.33,3.02-6.46,1.02-2.14,1.94-4.05,2.74-5.72.37-.74.87-1.25,1.49-1.53.62-.28,1.36-.42,2.23-.42h5.02c-1.05.81-1.94,1.6-2.65,2.37-.71.78-1.49,1.83-2.32,3.16-.84,1.33-1.97,3.3-3.39,5.91-.56,1.05-1.23,2.53-2,4.42-.78,1.89-1.47,3.86-2.09,5.91-.62,2.05-.93,3.84-.93,5.39,0,.93.14,1.71.42,2.33.28.62.82.93,1.63.93,1.18,0,2.39-.51,3.63-1.53,1.24-1.02,2.45-2.36,3.63-4,1.18-1.64,2.28-3.42,3.3-5.35,1.02-1.92,1.91-3.75,2.65-5.49.74,0,1.12.28,1.12.84-.74,1.86-1.66,3.83-2.74,5.91-1.09,2.08-2.33,4.01-3.72,5.81-1.39,1.8-2.92,3.27-4.56,4.42-1.64,1.15-3.39,1.72-5.25,1.72-1.24,0-2.42-.48-3.53-1.44-1.12-.96-1.67-2.46-1.67-4.51,0-1.24.31-2.88.93-4.93-1.12,1.49-2.26,2.51-3.44,3.07-1.18.56-2.45.84-3.81.84-.56,0-1.05-.03-1.49-.09-1.67,1.99-3.6,3.64-5.77,4.98-2.17,1.33-4.56,2-7.16,2s-4.36-.71-5.44-2.14c-1.08-1.43-1.63-3.19-1.63-5.3,0-1.24.15-2.45.46-3.63.31-1.18.68-2.36,1.12-3.53.62-1.49,1.49-3.29,2.6-5.39,1.12-2.11,2.36-4.18,3.72-6.23,1.36-2.05,2.73-3.75,4.09-5.11s2.57-2.05,3.63-2.05c.5,0,1.02.08,1.58.23.56.16,1.15.23,1.77.23.25,0,.46-.03.65-.09-.37.19-.96.76-1.77,1.72-.81.96-1.72,2.12-2.74,3.49-1.02,1.36-2.06,2.76-3.12,4.18-1.05,1.43-1.99,2.7-2.79,3.81,1.05-1.12,2.45-2.25,4.18-3.39,1.74-1.15,3.56-1.72,5.49-1.72,2.11,0,3.66.59,4.65,1.77.99,1.18,1.49,2.57,1.49,4.19,0,1.12-.17,2.28-.51,3.49-.34,1.21-.76,2.28-1.26,3.21ZM137.73,61.66c0-.87.28-1.55.84-2.05.56-.5,1.18-.74,1.86-.74s1.19.19,1.53.56c.34.37.51.81.51,1.3v.47c.37-1.05.62-2.01.74-2.88.12-.87.19-1.58.19-2.14,0-1.24-.25-2.28-.74-3.12-.5-.84-1.36-1.26-2.6-1.26-1.55,0-3.25.87-5.12,2.6-1.86,1.74-3.53,3.97-5.02,6.7-.93,1.74-1.6,3.26-2,4.56-.4,1.3-.6,2.54-.6,3.72,0,.99.25,1.8.74,2.42.5.62,1.39.93,2.7.93,1.18,0,2.65-.62,4.42-1.86,1.77-1.24,3.39-2.94,4.88-5.12-1.55-1.12-2.33-2.48-2.33-4.09Z"/>
      <path class="cls-1" d="M175.86,74.87c-.99,0-1.8-.31-2.42-.93-.62-.62-.93-1.39-.93-2.32,0-1.24.48-2.29,1.44-3.16.96-.87,2-1.3,3.12-1.3.99,0,1.8.3,2.42.88.62.59.93,1.35.93,2.28,0,1.18-.46,2.23-1.39,3.16s-1.99,1.4-3.16,1.4Z"/>
      <path class="cls-1" d="M194.93,74.87c-.99,0-1.8-.31-2.42-.93-.62-.62-.93-1.39-.93-2.32,0-1.24.48-2.29,1.44-3.16.96-.87,2-1.3,3.12-1.3.99,0,1.8.3,2.42.88.62.59.93,1.35.93,2.28,0,1.18-.46,2.23-1.4,3.16-.93.93-1.98,1.4-3.16,1.4Z"/>
      <path class="cls-1" d="M213.99,74.87c-.99,0-1.8-.31-2.42-.93-.62-.62-.93-1.39-.93-2.32,0-1.24.48-2.29,1.44-3.16.96-.87,2-1.3,3.12-1.3.99,0,1.8.3,2.42.88.62.59.93,1.35.93,2.28,0,1.18-.46,2.23-1.39,3.16s-1.99,1.4-3.16,1.4Z"/>
    </g>
  </g>
</svg>